%TF.GenerationSoftware,KiCad,Pcbnew,7.0.11*%
%TF.CreationDate,2024-08-14T14:47:56+09:00*%
%TF.ProjectId,mac_psu_atx_adapter,6d61635f-7073-4755-9f61-74785f616461,rev?*%
%TF.SameCoordinates,Original*%
%TF.FileFunction,Copper,L1,Top*%
%TF.FilePolarity,Positive*%
%FSLAX46Y46*%
G04 Gerber Fmt 4.6, Leading zero omitted, Abs format (unit mm)*
G04 Created by KiCad (PCBNEW 7.0.11) date 2024-08-14 14:47:56*
%MOMM*%
%LPD*%
G01*
G04 APERTURE LIST*
G04 Aperture macros list*
%AMRoundRect*
0 Rectangle with rounded corners*
0 $1 Rounding radius*
0 $2 $3 $4 $5 $6 $7 $8 $9 X,Y pos of 4 corners*
0 Add a 4 corners polygon primitive as box body*
4,1,4,$2,$3,$4,$5,$6,$7,$8,$9,$2,$3,0*
0 Add four circle primitives for the rounded corners*
1,1,$1+$1,$2,$3*
1,1,$1+$1,$4,$5*
1,1,$1+$1,$6,$7*
1,1,$1+$1,$8,$9*
0 Add four rect primitives between the rounded corners*
20,1,$1+$1,$2,$3,$4,$5,0*
20,1,$1+$1,$4,$5,$6,$7,0*
20,1,$1+$1,$6,$7,$8,$9,0*
20,1,$1+$1,$8,$9,$2,$3,0*%
G04 Aperture macros list end*
%TA.AperFunction,SMDPad,CuDef*%
%ADD10RoundRect,0.250000X-0.475000X0.337500X-0.475000X-0.337500X0.475000X-0.337500X0.475000X0.337500X0*%
%TD*%
%TA.AperFunction,ComponentPad*%
%ADD11RoundRect,0.250001X1.099999X1.399999X-1.099999X1.399999X-1.099999X-1.399999X1.099999X-1.399999X0*%
%TD*%
%TA.AperFunction,ComponentPad*%
%ADD12O,2.700000X3.300000*%
%TD*%
%TA.AperFunction,SMDPad,CuDef*%
%ADD13RoundRect,0.250000X-0.450000X0.350000X-0.450000X-0.350000X0.450000X-0.350000X0.450000X0.350000X0*%
%TD*%
%TA.AperFunction,SMDPad,CuDef*%
%ADD14R,1.560000X0.650000*%
%TD*%
%TA.AperFunction,Conductor*%
%ADD15C,0.250000*%
%TD*%
G04 APERTURE END LIST*
D10*
%TO.P,C1,1*%
%TO.N,+5VSB*%
X165100000Y-92942500D03*
%TO.P,C1,2*%
%TO.N,GND*%
X165100000Y-95017500D03*
%TD*%
D11*
%TO.P,J2,1,Pin_1*%
%TO.N,unconnected-(J2-Pin_1-Pad1)*%
X165340000Y-107100000D03*
D12*
%TO.P,J2,2,Pin_2*%
%TO.N,unconnected-(J2-Pin_2-Pad2)*%
X161140000Y-107100000D03*
%TO.P,J2,3,Pin_3*%
%TO.N,GND*%
X156940000Y-107100000D03*
%TO.P,J2,4,Pin_4*%
%TO.N,+5V*%
X152740000Y-107100000D03*
%TO.P,J2,5,Pin_5*%
%TO.N,GND*%
X148540000Y-107100000D03*
%TO.P,J2,6,Pin_6*%
%TO.N,+5V*%
X144340000Y-107100000D03*
%TO.P,J2,7,Pin_7*%
%TO.N,GND*%
X140140000Y-107100000D03*
%TO.P,J2,8,Pin_8*%
%TO.N,unconnected-(J2-Pin_8-Pad8)*%
X135940000Y-107100000D03*
%TO.P,J2,9,Pin_9*%
%TO.N,+5VSB*%
X131740000Y-107100000D03*
%TO.P,J2,10,Pin_10*%
%TO.N,+12V*%
X127540000Y-107100000D03*
%TO.P,J2,11,Pin_11*%
X123340000Y-107100000D03*
%TO.P,J2,12,Pin_12*%
%TO.N,unconnected-(J2-Pin_12-Pad12)*%
X119140000Y-107100000D03*
%TO.P,J2,13,Pin_13*%
%TO.N,unconnected-(J2-Pin_13-Pad13)*%
X165340000Y-101600000D03*
%TO.P,J2,14,Pin_14*%
%TO.N,-12V*%
X161140000Y-101600000D03*
%TO.P,J2,15,Pin_15*%
%TO.N,GND*%
X156940000Y-101600000D03*
%TO.P,J2,16,Pin_16*%
%TO.N,PS_ON*%
X152740000Y-101600000D03*
%TO.P,J2,17,Pin_17*%
%TO.N,GND*%
X148540000Y-101600000D03*
%TO.P,J2,18,Pin_18*%
X144340000Y-101600000D03*
%TO.P,J2,19,Pin_19*%
X140140000Y-101600000D03*
%TO.P,J2,20,Pin_20*%
%TO.N,unconnected-(J2-Pin_20-Pad20)*%
X135940000Y-101600000D03*
%TO.P,J2,21,Pin_21*%
%TO.N,+5V*%
X131740000Y-101600000D03*
%TO.P,J2,22,Pin_22*%
X127540000Y-101600000D03*
%TO.P,J2,23,Pin_23*%
X123340000Y-101600000D03*
%TO.P,J2,24,Pin_24*%
%TO.N,GND*%
X119140000Y-101600000D03*
%TD*%
D13*
%TO.P,R1,1*%
%TO.N,Net-(J1-Pin_9)*%
X148320000Y-93010000D03*
%TO.P,R1,2*%
%TO.N,GND*%
X148320000Y-95010000D03*
%TD*%
%TO.P,R2,1*%
%TO.N,+5VSB*%
X162560000Y-87900000D03*
%TO.P,R2,2*%
%TO.N,PS_ON*%
X162560000Y-89900000D03*
%TD*%
D14*
%TO.P,U1,1*%
%TO.N,N/C*%
X154780000Y-91440000D03*
%TO.P,U1,2*%
%TO.N,Net-(J1-Pin_9)*%
X154780000Y-92390000D03*
%TO.P,U1,3,GND*%
%TO.N,GND*%
X154780000Y-93340000D03*
%TO.P,U1,4*%
%TO.N,PS_ON*%
X157480000Y-93340000D03*
%TO.P,U1,5,VCC*%
%TO.N,+5VSB*%
X157480000Y-91440000D03*
%TD*%
D11*
%TO.P,J1,1,Pin_1*%
%TO.N,+12V*%
X119140000Y-88480000D03*
D12*
%TO.P,J1,2,Pin_2*%
%TO.N,+5V*%
X123340000Y-88480000D03*
%TO.P,J1,3,Pin_3*%
X127540000Y-88480000D03*
%TO.P,J1,4,Pin_4*%
X131740000Y-88480000D03*
%TO.P,J1,5,Pin_5*%
%TO.N,GND*%
X135940000Y-88480000D03*
%TO.P,J1,6,Pin_6*%
X119140000Y-93980000D03*
%TO.P,J1,7,Pin_7*%
X123340000Y-93980000D03*
%TO.P,J1,8,Pin_8*%
%TO.N,-12V*%
X127540000Y-93980000D03*
%TO.P,J1,9,Pin_9*%
%TO.N,Net-(J1-Pin_9)*%
X131740000Y-93980000D03*
%TO.P,J1,10,Pin_10*%
%TO.N,+5VSB*%
X135940000Y-93980000D03*
%TD*%
D15*
%TO.N,+5VSB*%
X129540000Y-96731192D02*
X133415000Y-100606192D01*
X139130000Y-90790000D02*
X156830000Y-90790000D01*
X135940000Y-93980000D02*
X139130000Y-90790000D01*
X157480000Y-91440000D02*
X159020000Y-91440000D01*
X133415000Y-105425000D02*
X131740000Y-107100000D01*
X131611192Y-91440000D02*
X129540000Y-93511192D01*
X133415000Y-100606192D02*
X133415000Y-105425000D01*
X159020000Y-91440000D02*
X162560000Y-87900000D01*
X129540000Y-93511192D02*
X129540000Y-96731192D01*
X133400000Y-91440000D02*
X131611192Y-91440000D01*
X165100000Y-90440000D02*
X165100000Y-92942500D01*
X156830000Y-90790000D02*
X157480000Y-91440000D01*
X135940000Y-93980000D02*
X133400000Y-91440000D01*
X162560000Y-87900000D02*
X165100000Y-90440000D01*
%TO.N,+12V*%
X121220000Y-109220000D02*
X123340000Y-107100000D01*
X119140000Y-88480000D02*
X116315000Y-91305000D01*
X118591192Y-109220000D02*
X121220000Y-109220000D01*
X116315000Y-91305000D02*
X116315000Y-106943808D01*
X116315000Y-106943808D02*
X118591192Y-109220000D01*
X123340000Y-107100000D02*
X127540000Y-107100000D01*
%TO.N,+5V*%
X130065000Y-108093808D02*
X131191192Y-109220000D01*
X131740000Y-101600000D02*
X127540000Y-101600000D01*
X150765000Y-105125000D02*
X152740000Y-107100000D01*
X125730000Y-99210000D02*
X123340000Y-101600000D01*
X142220000Y-109220000D02*
X144340000Y-107100000D01*
X125730000Y-90870000D02*
X125730000Y-99210000D01*
X131740000Y-101600000D02*
X130065000Y-103275000D01*
X123340000Y-88480000D02*
X127540000Y-88480000D01*
X123340000Y-88480000D02*
X125730000Y-90870000D01*
X131740000Y-88480000D02*
X127540000Y-88480000D01*
X144340000Y-107100000D02*
X146315000Y-105125000D01*
X130065000Y-103275000D02*
X130065000Y-108093808D01*
X146315000Y-105125000D02*
X150765000Y-105125000D01*
X131191192Y-109220000D02*
X142220000Y-109220000D01*
X123340000Y-101600000D02*
X127540000Y-101600000D01*
%TO.N,-12V*%
X142240000Y-86360000D02*
X170180000Y-86360000D01*
X127540000Y-93980000D02*
X131065000Y-90455000D01*
X131065000Y-90455000D02*
X138145000Y-90455000D01*
X170180000Y-92560000D02*
X161140000Y-101600000D01*
X138145000Y-90455000D02*
X142240000Y-86360000D01*
X170180000Y-86360000D02*
X170180000Y-92560000D01*
%TO.N,Net-(J1-Pin_9)*%
X141270000Y-96520000D02*
X134280000Y-96520000D01*
X148320000Y-93010000D02*
X148940000Y-92390000D01*
X148940000Y-92390000D02*
X154780000Y-92390000D01*
X134280000Y-96520000D02*
X131740000Y-93980000D01*
X144780000Y-93010000D02*
X141270000Y-96520000D01*
X148320000Y-93010000D02*
X144780000Y-93010000D01*
%TO.N,PS_ON*%
X157480000Y-96860000D02*
X152740000Y-101600000D01*
X159120000Y-93340000D02*
X162560000Y-89900000D01*
X157480000Y-93340000D02*
X157480000Y-96860000D01*
X157480000Y-93340000D02*
X159120000Y-93340000D01*
%TD*%
%TA.AperFunction,Conductor*%
%TO.N,GND*%
G36*
X172028039Y-85109685D02*
G01*
X172073794Y-85162489D01*
X172085000Y-85214000D01*
X172085000Y-110366000D01*
X172065315Y-110433039D01*
X172012511Y-110478794D01*
X171961000Y-110490000D01*
X112519000Y-110490000D01*
X112451961Y-110470315D01*
X112406206Y-110417511D01*
X112395000Y-110366000D01*
X112395000Y-102191187D01*
X112689500Y-102191187D01*
X112703588Y-102284651D01*
X112728604Y-102450615D01*
X112728605Y-102450617D01*
X112728606Y-102450623D01*
X112805938Y-102701326D01*
X112919767Y-102937696D01*
X112919768Y-102937697D01*
X112919770Y-102937700D01*
X112919772Y-102937704D01*
X113059225Y-103142243D01*
X113067567Y-103154479D01*
X113246014Y-103346801D01*
X113246018Y-103346804D01*
X113246019Y-103346805D01*
X113451143Y-103510386D01*
X113678357Y-103641568D01*
X113922584Y-103737420D01*
X114178370Y-103795802D01*
X114178376Y-103795802D01*
X114178379Y-103795803D01*
X114374484Y-103810499D01*
X114374503Y-103810499D01*
X114374506Y-103810500D01*
X114374508Y-103810500D01*
X114505492Y-103810500D01*
X114505494Y-103810500D01*
X114505496Y-103810499D01*
X114505515Y-103810499D01*
X114701620Y-103795803D01*
X114701622Y-103795802D01*
X114701630Y-103795802D01*
X114957416Y-103737420D01*
X115201643Y-103641568D01*
X115428857Y-103510386D01*
X115488189Y-103463070D01*
X115552873Y-103436663D01*
X115621569Y-103449418D01*
X115672463Y-103497289D01*
X115689500Y-103560018D01*
X115689500Y-106861063D01*
X115687775Y-106876680D01*
X115688061Y-106876707D01*
X115687326Y-106884473D01*
X115689439Y-106951680D01*
X115689500Y-106955575D01*
X115689500Y-106983165D01*
X115690003Y-106987143D01*
X115690918Y-106998775D01*
X115692290Y-107042432D01*
X115692291Y-107042435D01*
X115697880Y-107061675D01*
X115701824Y-107080719D01*
X115704336Y-107100600D01*
X115720414Y-107141211D01*
X115724197Y-107152260D01*
X115736381Y-107194196D01*
X115746580Y-107211442D01*
X115755138Y-107228911D01*
X115762514Y-107247540D01*
X115788181Y-107282868D01*
X115794593Y-107292629D01*
X115816828Y-107330225D01*
X115816833Y-107330232D01*
X115830990Y-107344388D01*
X115843628Y-107359184D01*
X115855405Y-107375394D01*
X115855406Y-107375395D01*
X115889057Y-107403233D01*
X115897698Y-107411096D01*
X118090386Y-109603784D01*
X118100211Y-109616048D01*
X118100432Y-109615866D01*
X118105402Y-109621874D01*
X118154431Y-109667915D01*
X118157214Y-109670612D01*
X118176722Y-109690120D01*
X118179883Y-109692572D01*
X118188763Y-109700156D01*
X118220610Y-109730062D01*
X118220614Y-109730064D01*
X118238165Y-109739713D01*
X118254423Y-109750392D01*
X118270256Y-109762674D01*
X118305602Y-109777968D01*
X118310347Y-109780022D01*
X118320827Y-109785155D01*
X118359100Y-109806197D01*
X118378504Y-109811179D01*
X118396902Y-109817478D01*
X118415297Y-109825438D01*
X118458446Y-109832271D01*
X118469872Y-109834638D01*
X118512173Y-109845500D01*
X118532208Y-109845500D01*
X118551605Y-109847026D01*
X118571388Y-109850160D01*
X118614867Y-109846050D01*
X118626536Y-109845500D01*
X121137257Y-109845500D01*
X121152877Y-109847224D01*
X121152904Y-109846939D01*
X121160660Y-109847671D01*
X121160667Y-109847673D01*
X121227873Y-109845561D01*
X121231768Y-109845500D01*
X121259346Y-109845500D01*
X121259350Y-109845500D01*
X121263324Y-109844997D01*
X121274963Y-109844080D01*
X121318627Y-109842709D01*
X121337869Y-109837117D01*
X121356912Y-109833174D01*
X121376792Y-109830664D01*
X121417401Y-109814585D01*
X121428444Y-109810803D01*
X121470390Y-109798618D01*
X121487629Y-109788422D01*
X121505103Y-109779862D01*
X121523727Y-109772488D01*
X121523727Y-109772487D01*
X121523732Y-109772486D01*
X121559083Y-109746800D01*
X121568814Y-109740408D01*
X121606420Y-109718170D01*
X121620589Y-109703999D01*
X121635379Y-109691368D01*
X121651587Y-109679594D01*
X121679438Y-109645926D01*
X121687279Y-109637309D01*
X122287923Y-109036665D01*
X122349244Y-109003182D01*
X122418936Y-109008166D01*
X122432284Y-109014062D01*
X122614325Y-109107656D01*
X122756243Y-109156072D01*
X122870685Y-109195115D01*
X122870688Y-109195115D01*
X122870695Y-109195118D01*
X123137067Y-109244319D01*
X123353625Y-109252233D01*
X123407763Y-109254212D01*
X123407763Y-109254211D01*
X123407765Y-109254212D01*
X123677018Y-109224586D01*
X123939088Y-109156072D01*
X124188390Y-109050130D01*
X124419610Y-108909018D01*
X124627820Y-108735745D01*
X124808582Y-108534002D01*
X124958044Y-108308090D01*
X125073020Y-108062824D01*
X125096457Y-107984922D01*
X125147948Y-107813776D01*
X125186111Y-107755250D01*
X125249859Y-107726648D01*
X125266690Y-107725500D01*
X125617234Y-107725500D01*
X125684273Y-107745185D01*
X125730028Y-107797989D01*
X125738267Y-107822538D01*
X125763218Y-107934548D01*
X125763220Y-107934553D01*
X125859986Y-108187558D01*
X125992559Y-108423777D01*
X126109186Y-108574815D01*
X126158112Y-108638177D01*
X126353109Y-108826177D01*
X126353114Y-108826182D01*
X126353119Y-108826186D01*
X126573421Y-108983799D01*
X126632299Y-109014070D01*
X126814309Y-109107649D01*
X126814318Y-109107652D01*
X126814325Y-109107656D01*
X126956243Y-109156072D01*
X127070685Y-109195115D01*
X127070688Y-109195115D01*
X127070695Y-109195118D01*
X127337067Y-109244319D01*
X127553625Y-109252233D01*
X127607763Y-109254212D01*
X127607763Y-109254211D01*
X127607765Y-109254212D01*
X127877018Y-109224586D01*
X128139088Y-109156072D01*
X128388390Y-109050130D01*
X128619610Y-108909018D01*
X128827820Y-108735745D01*
X129008582Y-108534002D01*
X129158044Y-108308090D01*
X129214681Y-108187271D01*
X129260957Y-108134928D01*
X129328189Y-108115912D01*
X129395030Y-108136263D01*
X129440257Y-108189520D01*
X129446027Y-108205297D01*
X129447875Y-108211655D01*
X129451824Y-108230719D01*
X129454336Y-108250600D01*
X129470414Y-108291211D01*
X129474197Y-108302260D01*
X129486381Y-108344196D01*
X129496580Y-108361442D01*
X129505138Y-108378911D01*
X129512514Y-108397540D01*
X129538181Y-108432868D01*
X129544593Y-108442629D01*
X129566828Y-108480225D01*
X129566833Y-108480232D01*
X129580990Y-108494388D01*
X129593627Y-108509183D01*
X129605406Y-108525395D01*
X129635158Y-108550008D01*
X129639057Y-108553233D01*
X129647698Y-108561096D01*
X130690389Y-109603788D01*
X130700214Y-109616051D01*
X130700435Y-109615869D01*
X130705403Y-109621874D01*
X130754414Y-109667899D01*
X130757213Y-109670612D01*
X130776714Y-109690114D01*
X130776718Y-109690117D01*
X130776721Y-109690120D01*
X130779894Y-109692581D01*
X130788766Y-109700159D01*
X130820610Y-109730062D01*
X130838166Y-109739713D01*
X130854425Y-109750393D01*
X130870256Y-109762673D01*
X130899995Y-109775542D01*
X130910344Y-109780021D01*
X130920833Y-109785160D01*
X130944649Y-109798252D01*
X130959100Y-109806197D01*
X130971715Y-109809435D01*
X130978497Y-109811177D01*
X130996911Y-109817481D01*
X131015296Y-109825438D01*
X131058453Y-109832273D01*
X131069848Y-109834632D01*
X131112173Y-109845500D01*
X131132208Y-109845500D01*
X131151605Y-109847026D01*
X131171388Y-109850160D01*
X131214867Y-109846050D01*
X131226536Y-109845500D01*
X142137257Y-109845500D01*
X142152877Y-109847224D01*
X142152904Y-109846939D01*
X142160660Y-109847671D01*
X142160667Y-109847673D01*
X142227873Y-109845561D01*
X142231768Y-109845500D01*
X142259346Y-109845500D01*
X142259350Y-109845500D01*
X142263324Y-109844997D01*
X142274963Y-109844080D01*
X142318627Y-109842709D01*
X142337869Y-109837117D01*
X142356912Y-109833174D01*
X142376792Y-109830664D01*
X142417401Y-109814585D01*
X142428444Y-109810803D01*
X142470390Y-109798618D01*
X142487629Y-109788422D01*
X142505103Y-109779862D01*
X142523727Y-109772488D01*
X142523727Y-109772487D01*
X142523732Y-109772486D01*
X142559083Y-109746800D01*
X142568814Y-109740408D01*
X142606420Y-109718170D01*
X142620589Y-109703999D01*
X142635379Y-109691368D01*
X142651587Y-109679594D01*
X142679438Y-109645926D01*
X142687279Y-109637309D01*
X143287923Y-109036665D01*
X143349244Y-109003182D01*
X143418936Y-109008166D01*
X143432284Y-109014062D01*
X143614325Y-109107656D01*
X143756243Y-109156072D01*
X143870685Y-109195115D01*
X143870688Y-109195115D01*
X143870695Y-109195118D01*
X144137067Y-109244319D01*
X144353625Y-109252233D01*
X144407763Y-109254212D01*
X144407763Y-109254211D01*
X144407765Y-109254212D01*
X144677018Y-109224586D01*
X144939088Y-109156072D01*
X145188390Y-109050130D01*
X145419610Y-108909018D01*
X145627820Y-108735745D01*
X145808582Y-108534002D01*
X145958044Y-108308090D01*
X146073020Y-108062824D01*
X146112040Y-107933127D01*
X146151057Y-107803442D01*
X146151057Y-107803438D01*
X146151060Y-107803431D01*
X146190500Y-107535439D01*
X146190500Y-106732369D01*
X146188089Y-106699434D01*
X146183253Y-106633355D01*
X146175677Y-106529844D01*
X146156721Y-106444750D01*
X146121089Y-106284790D01*
X146125726Y-106215074D01*
X146154439Y-106170150D01*
X146537771Y-105786819D01*
X146599094Y-105753334D01*
X146625452Y-105750500D01*
X146793722Y-105750500D01*
X146860761Y-105770185D01*
X146906516Y-105822989D01*
X146916460Y-105892147D01*
X146905998Y-105927133D01*
X146807445Y-106137363D01*
X146807445Y-106137365D01*
X146729432Y-106396666D01*
X146729429Y-106396680D01*
X146690000Y-106664601D01*
X146690000Y-106850000D01*
X147880671Y-106850000D01*
X147840000Y-107015005D01*
X147840000Y-107184995D01*
X147880671Y-107350000D01*
X146690000Y-107350000D01*
X146690000Y-107467624D01*
X146704819Y-107670082D01*
X146704820Y-107670092D01*
X146763699Y-107934404D01*
X146763701Y-107934409D01*
X146860442Y-108187347D01*
X146992976Y-108423498D01*
X146992978Y-108423501D01*
X147158486Y-108637842D01*
X147353430Y-108825791D01*
X147353437Y-108825797D01*
X147573681Y-108983369D01*
X147573686Y-108983372D01*
X147814505Y-109107187D01*
X147814523Y-109107194D01*
X148070812Y-109194629D01*
X148070826Y-109194632D01*
X148289999Y-109235116D01*
X148290000Y-109235116D01*
X148290000Y-107753837D01*
X148371249Y-107784651D01*
X148497660Y-107800000D01*
X148582340Y-107800000D01*
X148708751Y-107784651D01*
X148790000Y-107753837D01*
X148790000Y-109233656D01*
X148876914Y-109224093D01*
X148876928Y-109224091D01*
X149138920Y-109155598D01*
X149388160Y-109049682D01*
X149619313Y-108908612D01*
X149619315Y-108908611D01*
X149827474Y-108735382D01*
X150008184Y-108533695D01*
X150157604Y-108307847D01*
X150272554Y-108062636D01*
X150272554Y-108062634D01*
X150350567Y-107803333D01*
X150350570Y-107803319D01*
X150389999Y-107535398D01*
X150390000Y-107535397D01*
X150390000Y-107350000D01*
X149199329Y-107350000D01*
X149240000Y-107184995D01*
X149240000Y-107015005D01*
X149199329Y-106850000D01*
X150390000Y-106850000D01*
X150390000Y-106732396D01*
X150389999Y-106732375D01*
X150375180Y-106529917D01*
X150375179Y-106529907D01*
X150316300Y-106265595D01*
X150316298Y-106265590D01*
X150219556Y-106012649D01*
X150176083Y-105935187D01*
X150160439Y-105867091D01*
X150184093Y-105801348D01*
X150239537Y-105758830D01*
X150284217Y-105750500D01*
X150454548Y-105750500D01*
X150521587Y-105770185D01*
X150542229Y-105786819D01*
X150928104Y-106172694D01*
X150961589Y-106234017D01*
X150959166Y-106296098D01*
X150928939Y-106396570D01*
X150909326Y-106529844D01*
X150889500Y-106664561D01*
X150889500Y-106664565D01*
X150889500Y-107467648D01*
X150904323Y-107670155D01*
X150904325Y-107670168D01*
X150963217Y-107934546D01*
X150963220Y-107934553D01*
X151059986Y-108187558D01*
X151192559Y-108423777D01*
X151309186Y-108574815D01*
X151358112Y-108638177D01*
X151553109Y-108826177D01*
X151553114Y-108826182D01*
X151553119Y-108826186D01*
X151773421Y-108983799D01*
X151832299Y-109014070D01*
X152014309Y-109107649D01*
X152014318Y-109107652D01*
X152014325Y-109107656D01*
X152156243Y-109156072D01*
X152270685Y-109195115D01*
X152270688Y-109195115D01*
X152270695Y-109195118D01*
X152537067Y-109244319D01*
X152753625Y-109252233D01*
X152807763Y-109254212D01*
X152807763Y-109254211D01*
X152807765Y-109254212D01*
X153077018Y-109224586D01*
X153339088Y-109156072D01*
X153588390Y-109050130D01*
X153819610Y-108909018D01*
X154027820Y-108735745D01*
X154208582Y-108534002D01*
X154358044Y-108308090D01*
X154473020Y-108062824D01*
X154512040Y-107933127D01*
X154551057Y-107803442D01*
X154551057Y-107803438D01*
X154551060Y-107803431D01*
X154590500Y-107535439D01*
X154590500Y-107467624D01*
X155090000Y-107467624D01*
X155104819Y-107670082D01*
X155104820Y-107670092D01*
X155163699Y-107934404D01*
X155163701Y-107934409D01*
X155260442Y-108187347D01*
X155392976Y-108423498D01*
X155392978Y-108423501D01*
X155558486Y-108637842D01*
X155753430Y-108825791D01*
X155753437Y-108825797D01*
X155973681Y-108983369D01*
X155973686Y-108983372D01*
X156214505Y-109107187D01*
X156214523Y-109107194D01*
X156470812Y-109194629D01*
X156470826Y-109194632D01*
X156689999Y-109235116D01*
X156690000Y-109235116D01*
X156690000Y-107753837D01*
X156771249Y-107784651D01*
X156897660Y-107800000D01*
X156982340Y-107800000D01*
X157108751Y-107784651D01*
X157190000Y-107753837D01*
X157190000Y-109233656D01*
X157276914Y-109224093D01*
X157276928Y-109224091D01*
X157538920Y-109155598D01*
X157788160Y-109049682D01*
X158019313Y-108908612D01*
X158019315Y-108908611D01*
X158227474Y-108735382D01*
X158408184Y-108533695D01*
X158557604Y-108307847D01*
X158672554Y-108062636D01*
X158672554Y-108062634D01*
X158750567Y-107803333D01*
X158750570Y-107803319D01*
X158789999Y-107535398D01*
X158790000Y-107535397D01*
X158790000Y-107467648D01*
X159289500Y-107467648D01*
X159304323Y-107670155D01*
X159304325Y-107670168D01*
X159363217Y-107934546D01*
X159363220Y-107934553D01*
X159459986Y-108187558D01*
X159592559Y-108423777D01*
X159709186Y-108574815D01*
X159758112Y-108638177D01*
X159953109Y-108826177D01*
X159953114Y-108826182D01*
X159953119Y-108826186D01*
X160173421Y-108983799D01*
X160232299Y-109014070D01*
X160414309Y-109107649D01*
X160414318Y-109107652D01*
X160414325Y-109107656D01*
X160556243Y-109156072D01*
X160670685Y-109195115D01*
X160670688Y-109195115D01*
X160670695Y-109195118D01*
X160937067Y-109244319D01*
X161153625Y-109252233D01*
X161207763Y-109254212D01*
X161207763Y-109254211D01*
X161207765Y-109254212D01*
X161477018Y-109224586D01*
X161739088Y-109156072D01*
X161988390Y-109050130D01*
X162219610Y-108909018D01*
X162427820Y-108735745D01*
X162594234Y-108550015D01*
X163489500Y-108550015D01*
X163500000Y-108652795D01*
X163500001Y-108652796D01*
X163555186Y-108819335D01*
X163555187Y-108819337D01*
X163647286Y-108968651D01*
X163647289Y-108968655D01*
X163771344Y-109092710D01*
X163771348Y-109092713D01*
X163920662Y-109184812D01*
X163920664Y-109184813D01*
X163920666Y-109184814D01*
X164087203Y-109239999D01*
X164189992Y-109250500D01*
X164189997Y-109250500D01*
X166490003Y-109250500D01*
X166490008Y-109250500D01*
X166592797Y-109239999D01*
X166759334Y-109184814D01*
X166908655Y-109092711D01*
X167032711Y-108968655D01*
X167124814Y-108819334D01*
X167179999Y-108652797D01*
X167190500Y-108550008D01*
X167190500Y-105649992D01*
X167179999Y-105547203D01*
X167124814Y-105380666D01*
X167069746Y-105291388D01*
X167032713Y-105231348D01*
X167032710Y-105231344D01*
X166908655Y-105107289D01*
X166908651Y-105107286D01*
X166759337Y-105015187D01*
X166759335Y-105015186D01*
X166639307Y-104975413D01*
X166592797Y-104960001D01*
X166592795Y-104960000D01*
X166490015Y-104949500D01*
X166490008Y-104949500D01*
X164189992Y-104949500D01*
X164189984Y-104949500D01*
X164087204Y-104960000D01*
X164087203Y-104960001D01*
X163920664Y-105015186D01*
X163920662Y-105015187D01*
X163771348Y-105107286D01*
X163771344Y-105107289D01*
X163647289Y-105231344D01*
X163647286Y-105231348D01*
X163555187Y-105380662D01*
X163555186Y-105380664D01*
X163500001Y-105547203D01*
X163500000Y-105547204D01*
X163489500Y-105649984D01*
X163489500Y-108550015D01*
X162594234Y-108550015D01*
X162608582Y-108534002D01*
X162758044Y-108308090D01*
X162873020Y-108062824D01*
X162912040Y-107933127D01*
X162951057Y-107803442D01*
X162951057Y-107803438D01*
X162951060Y-107803431D01*
X162990500Y-107535439D01*
X162990500Y-106732369D01*
X162988089Y-106699434D01*
X162983253Y-106633355D01*
X162975677Y-106529844D01*
X162958964Y-106454815D01*
X162916782Y-106265453D01*
X162916780Y-106265449D01*
X162916780Y-106265447D01*
X162820014Y-106012442D01*
X162687441Y-105776223D01*
X162521888Y-105561823D01*
X162461936Y-105504022D01*
X162326890Y-105373822D01*
X162326883Y-105373816D01*
X162326881Y-105373814D01*
X162106579Y-105216201D01*
X162098874Y-105212239D01*
X161865690Y-105092350D01*
X161865672Y-105092343D01*
X161609314Y-105004884D01*
X161609300Y-105004881D01*
X161563621Y-104996443D01*
X161342933Y-104955681D01*
X161342930Y-104955680D01*
X161342924Y-104955680D01*
X161072236Y-104945787D01*
X160802986Y-104975413D01*
X160802975Y-104975415D01*
X160540917Y-105043926D01*
X160540912Y-105043927D01*
X160540912Y-105043928D01*
X160391818Y-105107286D01*
X160291610Y-105149870D01*
X160060394Y-105290979D01*
X160060384Y-105290986D01*
X159852180Y-105464253D01*
X159852175Y-105464259D01*
X159671418Y-105665997D01*
X159521957Y-105891907D01*
X159406976Y-106137184D01*
X159406976Y-106137186D01*
X159328942Y-106396557D01*
X159328939Y-106396571D01*
X159326176Y-106415349D01*
X159289500Y-106664561D01*
X159289500Y-106664565D01*
X159289500Y-107467648D01*
X158790000Y-107467648D01*
X158790000Y-107350000D01*
X157599329Y-107350000D01*
X157640000Y-107184995D01*
X157640000Y-107015005D01*
X157599329Y-106850000D01*
X158790000Y-106850000D01*
X158790000Y-106732396D01*
X158789999Y-106732375D01*
X158775180Y-106529917D01*
X158775179Y-106529907D01*
X158716300Y-106265595D01*
X158716298Y-106265590D01*
X158619557Y-106012652D01*
X158487023Y-105776501D01*
X158487021Y-105776498D01*
X158321513Y-105562157D01*
X158126569Y-105374208D01*
X158126562Y-105374202D01*
X157906318Y-105216630D01*
X157906313Y-105216627D01*
X157665494Y-105092812D01*
X157665476Y-105092805D01*
X157409182Y-105005369D01*
X157409175Y-105005367D01*
X157190000Y-104964882D01*
X157190000Y-106446162D01*
X157108751Y-106415349D01*
X156982340Y-106400000D01*
X156897660Y-106400000D01*
X156771249Y-106415349D01*
X156690000Y-106446162D01*
X156690000Y-104966343D01*
X156603076Y-104975908D01*
X156603066Y-104975909D01*
X156341079Y-105044401D01*
X156091839Y-105150317D01*
X155860686Y-105291387D01*
X155860684Y-105291388D01*
X155652525Y-105464617D01*
X155471815Y-105666304D01*
X155322395Y-105892152D01*
X155207445Y-106137363D01*
X155207445Y-106137365D01*
X155129432Y-106396666D01*
X155129429Y-106396680D01*
X155090000Y-106664601D01*
X155090000Y-106850000D01*
X156280671Y-106850000D01*
X156240000Y-107015005D01*
X156240000Y-107184995D01*
X156280671Y-107350000D01*
X155090000Y-107350000D01*
X155090000Y-107467624D01*
X154590500Y-107467624D01*
X154590500Y-106732369D01*
X154588089Y-106699434D01*
X154583253Y-106633355D01*
X154575677Y-106529844D01*
X154558964Y-106454815D01*
X154516782Y-106265453D01*
X154516780Y-106265449D01*
X154516780Y-106265447D01*
X154420014Y-106012442D01*
X154287441Y-105776223D01*
X154121888Y-105561823D01*
X154061936Y-105504022D01*
X153926890Y-105373822D01*
X153926883Y-105373816D01*
X153926881Y-105373814D01*
X153706579Y-105216201D01*
X153698874Y-105212239D01*
X153465690Y-105092350D01*
X153465672Y-105092343D01*
X153209314Y-105004884D01*
X153209300Y-105004881D01*
X153163621Y-104996443D01*
X152942933Y-104955681D01*
X152942930Y-104955680D01*
X152942924Y-104955680D01*
X152672236Y-104945787D01*
X152402986Y-104975413D01*
X152402975Y-104975415D01*
X152140917Y-105043926D01*
X151891617Y-105149866D01*
X151840042Y-105181341D01*
X151772562Y-105199460D01*
X151705999Y-105178222D01*
X151687766Y-105163175D01*
X151265803Y-104741212D01*
X151255980Y-104728950D01*
X151255759Y-104729134D01*
X151250786Y-104723122D01*
X151201776Y-104677099D01*
X151198977Y-104674386D01*
X151179477Y-104654885D01*
X151179471Y-104654880D01*
X151176286Y-104652409D01*
X151167434Y-104644848D01*
X151135582Y-104614938D01*
X151135580Y-104614936D01*
X151135577Y-104614935D01*
X151118029Y-104605288D01*
X151101763Y-104594604D01*
X151085932Y-104582324D01*
X151045849Y-104564978D01*
X151035363Y-104559841D01*
X150997094Y-104538803D01*
X150997092Y-104538802D01*
X150977693Y-104533822D01*
X150959281Y-104527518D01*
X150940898Y-104519562D01*
X150940892Y-104519560D01*
X150897760Y-104512729D01*
X150886322Y-104510361D01*
X150844020Y-104499500D01*
X150844019Y-104499500D01*
X150823984Y-104499500D01*
X150804586Y-104497973D01*
X150797162Y-104496797D01*
X150784805Y-104494840D01*
X150784804Y-104494840D01*
X150741325Y-104498950D01*
X150729656Y-104499500D01*
X146397743Y-104499500D01*
X146382122Y-104497775D01*
X146382096Y-104498061D01*
X146374334Y-104497327D01*
X146374333Y-104497327D01*
X146322688Y-104498950D01*
X146307127Y-104499439D01*
X146303232Y-104499500D01*
X146275647Y-104499500D01*
X146271661Y-104500003D01*
X146260033Y-104500918D01*
X146216373Y-104502290D01*
X146197129Y-104507881D01*
X146178079Y-104511825D01*
X146158211Y-104514334D01*
X146158210Y-104514334D01*
X146117599Y-104530413D01*
X146106554Y-104534194D01*
X146064614Y-104546379D01*
X146064610Y-104546381D01*
X146047366Y-104556579D01*
X146029905Y-104565133D01*
X146011274Y-104572510D01*
X146011262Y-104572517D01*
X145975933Y-104598185D01*
X145966173Y-104604596D01*
X145928580Y-104626829D01*
X145914414Y-104640995D01*
X145899624Y-104653627D01*
X145883414Y-104665404D01*
X145883411Y-104665407D01*
X145855573Y-104699058D01*
X145847711Y-104707697D01*
X145392078Y-105163330D01*
X145330755Y-105196815D01*
X145261063Y-105191831D01*
X145247699Y-105185928D01*
X145065679Y-105092346D01*
X145065678Y-105092345D01*
X145065675Y-105092344D01*
X145060172Y-105090466D01*
X144809314Y-105004884D01*
X144809300Y-105004881D01*
X144763621Y-104996443D01*
X144542933Y-104955681D01*
X144542930Y-104955680D01*
X144542924Y-104955680D01*
X144272236Y-104945787D01*
X144002986Y-104975413D01*
X144002975Y-104975415D01*
X143740917Y-105043926D01*
X143740912Y-105043927D01*
X143740912Y-105043928D01*
X143591818Y-105107286D01*
X143491610Y-105149870D01*
X143260394Y-105290979D01*
X143260384Y-105290986D01*
X143052180Y-105464253D01*
X143052175Y-105464259D01*
X142871418Y-105665997D01*
X142721957Y-105891907D01*
X142606976Y-106137184D01*
X142606976Y-106137186D01*
X142528942Y-106396557D01*
X142528939Y-106396571D01*
X142526176Y-106415349D01*
X142489500Y-106664561D01*
X142489500Y-106664565D01*
X142489500Y-107467648D01*
X142504323Y-107670155D01*
X142504325Y-107670168D01*
X142558910Y-107915207D01*
X142554273Y-107984922D01*
X142525558Y-108029849D01*
X141997228Y-108558181D01*
X141935905Y-108591666D01*
X141909547Y-108594500D01*
X141798676Y-108594500D01*
X141731637Y-108574815D01*
X141685882Y-108522011D01*
X141675938Y-108452853D01*
X141695260Y-108402081D01*
X141757604Y-108307847D01*
X141872554Y-108062636D01*
X141872554Y-108062634D01*
X141950567Y-107803333D01*
X141950570Y-107803319D01*
X141989999Y-107535398D01*
X141990000Y-107535397D01*
X141990000Y-107350000D01*
X140799329Y-107350000D01*
X140840000Y-107184995D01*
X140840000Y-107015005D01*
X140799329Y-106850000D01*
X141990000Y-106850000D01*
X141990000Y-106732396D01*
X141989999Y-106732375D01*
X141975180Y-106529917D01*
X141975179Y-106529907D01*
X141916300Y-106265595D01*
X141916298Y-106265590D01*
X141819557Y-106012652D01*
X141687023Y-105776501D01*
X141687021Y-105776498D01*
X141521513Y-105562157D01*
X141326569Y-105374208D01*
X141326562Y-105374202D01*
X141106318Y-105216630D01*
X141106313Y-105216627D01*
X140865494Y-105092812D01*
X140865476Y-105092805D01*
X140609182Y-105005369D01*
X140609175Y-105005367D01*
X140390000Y-104964882D01*
X140390000Y-106446162D01*
X140308751Y-106415349D01*
X140182340Y-106400000D01*
X140097660Y-106400000D01*
X139971249Y-106415349D01*
X139890000Y-106446162D01*
X139890000Y-104966343D01*
X139803076Y-104975908D01*
X139803066Y-104975909D01*
X139541079Y-105044401D01*
X139291839Y-105150317D01*
X139060686Y-105291387D01*
X139060684Y-105291388D01*
X138852525Y-105464617D01*
X138671815Y-105666304D01*
X138522395Y-105892152D01*
X138407445Y-106137363D01*
X138407445Y-106137365D01*
X138329432Y-106396666D01*
X138329429Y-106396680D01*
X138290000Y-106664601D01*
X138290000Y-106850000D01*
X139480671Y-106850000D01*
X139440000Y-107015005D01*
X139440000Y-107184995D01*
X139480671Y-107350000D01*
X138290000Y-107350000D01*
X138290000Y-107467624D01*
X138304819Y-107670082D01*
X138304820Y-107670092D01*
X138363699Y-107934404D01*
X138363701Y-107934409D01*
X138460442Y-108187347D01*
X138585296Y-108409812D01*
X138600941Y-108477908D01*
X138577286Y-108543651D01*
X138521843Y-108586170D01*
X138477162Y-108594500D01*
X137599276Y-108594500D01*
X137532237Y-108574815D01*
X137486482Y-108522011D01*
X137476538Y-108452853D01*
X137495860Y-108402081D01*
X137511189Y-108378911D01*
X137558044Y-108308090D01*
X137673020Y-108062824D01*
X137712040Y-107933127D01*
X137751057Y-107803442D01*
X137751057Y-107803438D01*
X137751060Y-107803431D01*
X137790500Y-107535439D01*
X137790500Y-106732369D01*
X137788089Y-106699434D01*
X137783253Y-106633355D01*
X137775677Y-106529844D01*
X137758964Y-106454815D01*
X137716782Y-106265453D01*
X137716780Y-106265449D01*
X137716780Y-106265447D01*
X137620014Y-106012442D01*
X137487441Y-105776223D01*
X137321888Y-105561823D01*
X137261936Y-105504022D01*
X137126890Y-105373822D01*
X137126883Y-105373816D01*
X137126881Y-105373814D01*
X136906579Y-105216201D01*
X136898874Y-105212239D01*
X136665690Y-105092350D01*
X136665672Y-105092343D01*
X136409314Y-105004884D01*
X136409300Y-105004881D01*
X136363621Y-104996443D01*
X136142933Y-104955681D01*
X136142930Y-104955680D01*
X136142924Y-104955680D01*
X135872236Y-104945787D01*
X135602986Y-104975413D01*
X135602975Y-104975415D01*
X135340917Y-105043926D01*
X135340912Y-105043927D01*
X135340912Y-105043928D01*
X135191818Y-105107286D01*
X135091610Y-105149870D01*
X134860394Y-105290979D01*
X134860384Y-105290986D01*
X134652180Y-105464253D01*
X134652175Y-105464259D01*
X134471418Y-105665997D01*
X134321957Y-105891907D01*
X134206976Y-106137184D01*
X134206976Y-106137186D01*
X134128942Y-106396557D01*
X134128939Y-106396571D01*
X134126176Y-106415349D01*
X134089500Y-106664561D01*
X134089500Y-106664565D01*
X134089500Y-107467648D01*
X134104323Y-107670155D01*
X134104325Y-107670168D01*
X134163217Y-107934546D01*
X134163220Y-107934553D01*
X134259905Y-108187347D01*
X134259987Y-108187560D01*
X134384721Y-108409812D01*
X134400366Y-108477908D01*
X134376711Y-108543652D01*
X134321268Y-108586170D01*
X134276587Y-108594500D01*
X133399276Y-108594500D01*
X133332237Y-108574815D01*
X133286482Y-108522011D01*
X133276538Y-108452853D01*
X133295860Y-108402081D01*
X133311189Y-108378911D01*
X133358044Y-108308090D01*
X133473020Y-108062824D01*
X133512040Y-107933127D01*
X133551057Y-107803442D01*
X133551057Y-107803438D01*
X133551060Y-107803431D01*
X133590500Y-107535439D01*
X133590500Y-106732369D01*
X133588089Y-106699434D01*
X133583253Y-106633355D01*
X133575677Y-106529844D01*
X133556721Y-106444750D01*
X133521089Y-106284790D01*
X133525726Y-106215074D01*
X133554439Y-106170149D01*
X133798786Y-105925802D01*
X133811048Y-105915980D01*
X133810865Y-105915759D01*
X133816868Y-105910791D01*
X133816877Y-105910786D01*
X133862934Y-105861739D01*
X133865582Y-105859006D01*
X133885120Y-105839470D01*
X133887570Y-105836310D01*
X133895154Y-105827429D01*
X133925062Y-105795582D01*
X133934714Y-105778023D01*
X133945389Y-105761772D01*
X133957674Y-105745936D01*
X133975030Y-105705825D01*
X133980161Y-105695354D01*
X134001194Y-105657098D01*
X134001194Y-105657097D01*
X134001197Y-105657092D01*
X134006180Y-105637680D01*
X134012477Y-105619291D01*
X134020438Y-105600895D01*
X134027270Y-105557748D01*
X134029639Y-105546316D01*
X134040499Y-105504022D01*
X134040500Y-105504017D01*
X134040500Y-105483983D01*
X134042027Y-105464582D01*
X134045160Y-105444804D01*
X134041050Y-105401324D01*
X134040500Y-105389655D01*
X134040500Y-102770782D01*
X134060185Y-102703743D01*
X134112989Y-102657988D01*
X134182147Y-102648044D01*
X134245703Y-102677069D01*
X134272633Y-102710093D01*
X134392559Y-102923777D01*
X134499528Y-103062307D01*
X134558112Y-103138177D01*
X134753109Y-103326177D01*
X134753114Y-103326182D01*
X134753119Y-103326186D01*
X134973421Y-103483799D01*
X135025133Y-103510386D01*
X135214309Y-103607649D01*
X135214318Y-103607652D01*
X135214325Y-103607656D01*
X135356243Y-103656072D01*
X135470685Y-103695115D01*
X135470688Y-103695115D01*
X135470695Y-103695118D01*
X135737067Y-103744319D01*
X135953625Y-103752233D01*
X136007763Y-103754212D01*
X136007763Y-103754211D01*
X136007765Y-103754212D01*
X136277018Y-103724586D01*
X136539088Y-103656072D01*
X136788390Y-103550130D01*
X137019610Y-103409018D01*
X137227820Y-103235745D01*
X137408582Y-103034002D01*
X137558044Y-102808090D01*
X137673020Y-102562824D01*
X137751060Y-102303431D01*
X137790500Y-102035439D01*
X137790500Y-101967624D01*
X138290000Y-101967624D01*
X138304819Y-102170082D01*
X138304820Y-102170092D01*
X138363699Y-102434404D01*
X138363701Y-102434409D01*
X138460442Y-102687347D01*
X138592976Y-102923498D01*
X138592978Y-102923501D01*
X138758486Y-103137842D01*
X138953430Y-103325791D01*
X138953437Y-103325797D01*
X139173681Y-103483369D01*
X139173686Y-103483372D01*
X139414505Y-103607187D01*
X139414523Y-103607194D01*
X139670812Y-103694629D01*
X139670826Y-103694632D01*
X139889999Y-103735116D01*
X139890000Y-103735116D01*
X139890000Y-102253837D01*
X139971249Y-102284651D01*
X140097660Y-102300000D01*
X140182340Y-102300000D01*
X140308751Y-102284651D01*
X140390000Y-102253837D01*
X140390000Y-103733656D01*
X140476914Y-103724093D01*
X140476928Y-103724091D01*
X140738920Y-103655598D01*
X140988160Y-103549682D01*
X141219313Y-103408612D01*
X141219315Y-103408611D01*
X141427474Y-103235382D01*
X141608184Y-103033695D01*
X141757604Y-102807847D01*
X141872554Y-102562636D01*
X141872554Y-102562634D01*
X141950567Y-102303333D01*
X141950570Y-102303319D01*
X141989999Y-102035398D01*
X141990000Y-102035397D01*
X141990000Y-101967624D01*
X142490000Y-101967624D01*
X142504819Y-102170082D01*
X142504820Y-102170092D01*
X142563699Y-102434404D01*
X142563701Y-102434409D01*
X142660442Y-102687347D01*
X142792976Y-102923498D01*
X142792978Y-102923501D01*
X142958486Y-103137842D01*
X143153430Y-103325791D01*
X143153437Y-103325797D01*
X143373681Y-103483369D01*
X143373686Y-103483372D01*
X143614505Y-103607187D01*
X143614523Y-103607194D01*
X143870812Y-103694629D01*
X143870826Y-103694632D01*
X144089999Y-103735116D01*
X144090000Y-103735116D01*
X144090000Y-102253837D01*
X144171249Y-102284651D01*
X144297660Y-102300000D01*
X144382340Y-102300000D01*
X144508751Y-102284651D01*
X144590000Y-102253837D01*
X144590000Y-103733656D01*
X144676914Y-103724093D01*
X144676928Y-103724091D01*
X144938920Y-103655598D01*
X145188160Y-103549682D01*
X145419313Y-103408612D01*
X145419315Y-103408611D01*
X145627474Y-103235382D01*
X145808184Y-103033695D01*
X145957604Y-102807847D01*
X146072554Y-102562636D01*
X146072554Y-102562634D01*
X146150567Y-102303333D01*
X146150570Y-102303319D01*
X146189999Y-102035398D01*
X146190000Y-102035397D01*
X146190000Y-101967624D01*
X146690000Y-101967624D01*
X146704819Y-102170082D01*
X146704820Y-102170092D01*
X146763699Y-102434404D01*
X146763701Y-102434409D01*
X146860442Y-102687347D01*
X146992976Y-102923498D01*
X146992978Y-102923501D01*
X147158486Y-103137842D01*
X147353430Y-103325791D01*
X147353437Y-103325797D01*
X147573681Y-103483369D01*
X147573686Y-103483372D01*
X147814505Y-103607187D01*
X147814523Y-103607194D01*
X148070812Y-103694629D01*
X148070826Y-103694632D01*
X148289999Y-103735116D01*
X148290000Y-103735116D01*
X148290000Y-102253837D01*
X148371249Y-102284651D01*
X148497660Y-102300000D01*
X148582340Y-102300000D01*
X148708751Y-102284651D01*
X148790000Y-102253837D01*
X148790000Y-103733656D01*
X148876914Y-103724093D01*
X148876928Y-103724091D01*
X149138920Y-103655598D01*
X149388160Y-103549682D01*
X149619313Y-103408612D01*
X149619315Y-103408611D01*
X149827474Y-103235382D01*
X150008184Y-103033695D01*
X150157604Y-102807847D01*
X150272554Y-102562636D01*
X150272554Y-102562634D01*
X150350567Y-102303333D01*
X150350570Y-102303319D01*
X150389999Y-102035398D01*
X150390000Y-102035397D01*
X150390000Y-101850000D01*
X149199329Y-101850000D01*
X149240000Y-101684995D01*
X149240000Y-101515005D01*
X149199329Y-101350000D01*
X150390000Y-101350000D01*
X150390000Y-101232396D01*
X150389999Y-101232375D01*
X150375180Y-101029917D01*
X150375179Y-101029907D01*
X150316300Y-100765595D01*
X150316298Y-100765590D01*
X150219557Y-100512652D01*
X150087023Y-100276501D01*
X150087021Y-100276498D01*
X149921513Y-100062157D01*
X149726569Y-99874208D01*
X149726562Y-99874202D01*
X149506318Y-99716630D01*
X149506313Y-99716627D01*
X149265494Y-99592812D01*
X149265476Y-99592805D01*
X149009182Y-99505369D01*
X149009175Y-99505367D01*
X148790000Y-99464882D01*
X148790000Y-100946162D01*
X148708751Y-100915349D01*
X148582340Y-100900000D01*
X148497660Y-100900000D01*
X148371249Y-100915349D01*
X148290000Y-100946162D01*
X148290000Y-99466343D01*
X148203076Y-99475908D01*
X148203066Y-99475909D01*
X147941079Y-99544401D01*
X147691839Y-99650317D01*
X147460686Y-99791387D01*
X147460684Y-99791388D01*
X147252525Y-99964617D01*
X147071815Y-100166304D01*
X146922395Y-100392152D01*
X146807445Y-100637363D01*
X146807445Y-100637365D01*
X146729432Y-100896666D01*
X146729429Y-100896680D01*
X146690000Y-101164601D01*
X146690000Y-101350000D01*
X147880671Y-101350000D01*
X147840000Y-101515005D01*
X147840000Y-101684995D01*
X147880671Y-101850000D01*
X146690000Y-101850000D01*
X146690000Y-101967624D01*
X146190000Y-101967624D01*
X146190000Y-101850000D01*
X144999329Y-101850000D01*
X145040000Y-101684995D01*
X145040000Y-101515005D01*
X144999329Y-101350000D01*
X146190000Y-101350000D01*
X146190000Y-101232396D01*
X146189999Y-101232375D01*
X146175180Y-101029917D01*
X146175179Y-101029907D01*
X146116300Y-100765595D01*
X146116298Y-100765590D01*
X146019557Y-100512652D01*
X145887023Y-100276501D01*
X145887021Y-100276498D01*
X145721513Y-100062157D01*
X145526569Y-99874208D01*
X145526562Y-99874202D01*
X145306318Y-99716630D01*
X145306313Y-99716627D01*
X145065494Y-99592812D01*
X145065476Y-99592805D01*
X144809182Y-99505369D01*
X144809175Y-99505367D01*
X144590000Y-99464882D01*
X144590000Y-100946162D01*
X144508751Y-100915349D01*
X144382340Y-100900000D01*
X144297660Y-100900000D01*
X144171249Y-100915349D01*
X144090000Y-100946162D01*
X144090000Y-99466343D01*
X144003076Y-99475908D01*
X144003066Y-99475909D01*
X143741079Y-99544401D01*
X143491839Y-99650317D01*
X143260686Y-99791387D01*
X143260684Y-99791388D01*
X143052525Y-99964617D01*
X142871815Y-100166304D01*
X142722395Y-100392152D01*
X142607445Y-100637363D01*
X142607445Y-100637365D01*
X142529432Y-100896666D01*
X142529429Y-100896680D01*
X142490000Y-101164601D01*
X142490000Y-101350000D01*
X143680671Y-101350000D01*
X143640000Y-101515005D01*
X143640000Y-101684995D01*
X143680671Y-101850000D01*
X142490000Y-101850000D01*
X142490000Y-101967624D01*
X141990000Y-101967624D01*
X141990000Y-101850000D01*
X140799329Y-101850000D01*
X140840000Y-101684995D01*
X140840000Y-101515005D01*
X140799329Y-101350000D01*
X141990000Y-101350000D01*
X141990000Y-101232396D01*
X141989999Y-101232375D01*
X141975180Y-101029917D01*
X141975179Y-101029907D01*
X141916300Y-100765595D01*
X141916298Y-100765590D01*
X141819557Y-100512652D01*
X141687023Y-100276501D01*
X141687021Y-100276498D01*
X141521513Y-100062157D01*
X141326569Y-99874208D01*
X141326562Y-99874202D01*
X141106318Y-99716630D01*
X141106313Y-99716627D01*
X140865494Y-99592812D01*
X140865476Y-99592805D01*
X140609182Y-99505369D01*
X140609175Y-99505367D01*
X140390000Y-99464882D01*
X140390000Y-100946162D01*
X140308751Y-100915349D01*
X140182340Y-100900000D01*
X140097660Y-100900000D01*
X139971249Y-100915349D01*
X139890000Y-100946162D01*
X139890000Y-99466343D01*
X139803076Y-99475908D01*
X139803066Y-99475909D01*
X139541079Y-99544401D01*
X139291839Y-99650317D01*
X139060686Y-99791387D01*
X139060684Y-99791388D01*
X138852525Y-99964617D01*
X138671815Y-100166304D01*
X138522395Y-100392152D01*
X138407445Y-100637363D01*
X138407445Y-100637365D01*
X138329432Y-100896666D01*
X138329429Y-100896680D01*
X138290000Y-101164601D01*
X138290000Y-101350000D01*
X139480671Y-101350000D01*
X139440000Y-101515005D01*
X139440000Y-101684995D01*
X139480671Y-101850000D01*
X138290000Y-101850000D01*
X138290000Y-101967624D01*
X137790500Y-101967624D01*
X137790500Y-101232369D01*
X137788089Y-101199434D01*
X137785537Y-101164561D01*
X137775677Y-101029844D01*
X137763093Y-100973352D01*
X137716782Y-100765453D01*
X137716780Y-100765449D01*
X137716780Y-100765447D01*
X137620014Y-100512442D01*
X137487441Y-100276223D01*
X137321888Y-100061823D01*
X137220693Y-99964259D01*
X137126890Y-99873822D01*
X137126883Y-99873816D01*
X137126881Y-99873814D01*
X136906579Y-99716201D01*
X136868873Y-99696815D01*
X136665690Y-99592350D01*
X136665672Y-99592343D01*
X136409314Y-99504884D01*
X136409300Y-99504881D01*
X136363621Y-99496443D01*
X136142933Y-99455681D01*
X136142930Y-99455680D01*
X136142924Y-99455680D01*
X135872236Y-99445787D01*
X135602986Y-99475413D01*
X135602975Y-99475415D01*
X135340917Y-99543926D01*
X135340912Y-99543927D01*
X135340912Y-99543928D01*
X135098848Y-99646794D01*
X135091610Y-99649870D01*
X134860394Y-99790979D01*
X134860384Y-99790986D01*
X134652180Y-99964253D01*
X134652175Y-99964259D01*
X134471418Y-100165997D01*
X134321955Y-100391911D01*
X134321953Y-100391914D01*
X134265319Y-100512725D01*
X134219040Y-100565071D01*
X134151808Y-100584086D01*
X134084968Y-100563734D01*
X134039742Y-100510477D01*
X134033967Y-100494683D01*
X134032118Y-100488318D01*
X134028173Y-100469270D01*
X134025664Y-100449400D01*
X134009579Y-100408775D01*
X134005806Y-100397754D01*
X133993618Y-100355802D01*
X133993617Y-100355801D01*
X133993617Y-100355799D01*
X133993616Y-100355798D01*
X133983423Y-100338563D01*
X133974861Y-100321086D01*
X133967487Y-100302461D01*
X133957929Y-100289306D01*
X133941811Y-100267122D01*
X133935405Y-100257369D01*
X133913170Y-100219772D01*
X133913168Y-100219770D01*
X133913165Y-100219766D01*
X133899006Y-100205607D01*
X133886368Y-100190811D01*
X133874594Y-100174605D01*
X133840940Y-100146764D01*
X133832299Y-100138901D01*
X130201819Y-96508420D01*
X130168334Y-96447097D01*
X130165500Y-96420739D01*
X130165500Y-95624271D01*
X130185185Y-95557232D01*
X130237989Y-95511477D01*
X130307147Y-95501533D01*
X130370703Y-95530558D01*
X130375551Y-95534990D01*
X130459312Y-95615745D01*
X130553109Y-95706177D01*
X130553114Y-95706182D01*
X130553119Y-95706186D01*
X130773421Y-95863799D01*
X130833135Y-95894500D01*
X131014309Y-95987649D01*
X131014318Y-95987652D01*
X131014325Y-95987656D01*
X131156243Y-96036072D01*
X131270685Y-96075115D01*
X131270688Y-96075115D01*
X131270695Y-96075118D01*
X131537067Y-96124319D01*
X131753625Y-96132233D01*
X131807763Y-96134212D01*
X131807763Y-96134211D01*
X131807765Y-96134212D01*
X132077018Y-96104586D01*
X132339088Y-96036072D01*
X132588390Y-95930130D01*
X132639955Y-95898659D01*
X132707433Y-95880538D01*
X132773997Y-95901775D01*
X132792233Y-95916824D01*
X133779197Y-96903788D01*
X133789022Y-96916051D01*
X133789243Y-96915869D01*
X133794211Y-96921874D01*
X133794213Y-96921876D01*
X133794214Y-96921877D01*
X133810636Y-96937298D01*
X133843222Y-96967899D01*
X133846021Y-96970612D01*
X133865522Y-96990114D01*
X133865526Y-96990117D01*
X133865529Y-96990120D01*
X133868702Y-96992581D01*
X133877574Y-97000159D01*
X133909418Y-97030062D01*
X133926976Y-97039714D01*
X133943235Y-97050395D01*
X133959064Y-97062673D01*
X133999155Y-97080021D01*
X134009626Y-97085151D01*
X134022257Y-97092095D01*
X134047902Y-97106194D01*
X134047904Y-97106195D01*
X134047908Y-97106197D01*
X134067316Y-97111180D01*
X134085717Y-97117480D01*
X134086031Y-97117616D01*
X134104101Y-97125436D01*
X134104102Y-97125436D01*
X134104104Y-97125437D01*
X134147250Y-97132270D01*
X134158672Y-97134636D01*
X134200981Y-97145500D01*
X134221016Y-97145500D01*
X134240414Y-97147026D01*
X134260194Y-97150159D01*
X134260195Y-97150160D01*
X134260195Y-97150159D01*
X134260196Y-97150160D01*
X134303675Y-97146050D01*
X134315344Y-97145500D01*
X141187257Y-97145500D01*
X141202877Y-97147224D01*
X141202904Y-97146939D01*
X141210660Y-97147671D01*
X141210667Y-97147673D01*
X141277873Y-97145561D01*
X141281768Y-97145500D01*
X141309346Y-97145500D01*
X141309350Y-97145500D01*
X141313324Y-97144997D01*
X141324963Y-97144080D01*
X141368627Y-97142709D01*
X141387869Y-97137117D01*
X141406912Y-97133174D01*
X141426792Y-97130664D01*
X141467401Y-97114585D01*
X141478444Y-97110803D01*
X141520390Y-97098618D01*
X141537629Y-97088422D01*
X141555103Y-97079862D01*
X141573727Y-97072488D01*
X141573727Y-97072487D01*
X141573732Y-97072486D01*
X141609083Y-97046800D01*
X141618814Y-97040408D01*
X141656420Y-97018170D01*
X141670589Y-97003999D01*
X141685379Y-96991368D01*
X141701587Y-96979594D01*
X141729438Y-96945926D01*
X141737279Y-96937309D01*
X143414589Y-95260000D01*
X147120001Y-95260000D01*
X147120001Y-95409986D01*
X147130494Y-95512697D01*
X147185641Y-95679119D01*
X147185643Y-95679124D01*
X147277684Y-95828345D01*
X147401654Y-95952315D01*
X147550875Y-96044356D01*
X147550880Y-96044358D01*
X147717302Y-96099505D01*
X147717309Y-96099506D01*
X147820019Y-96109999D01*
X148069999Y-96109999D01*
X148070000Y-96109998D01*
X148070000Y-95260000D01*
X148570000Y-95260000D01*
X148570000Y-96109999D01*
X148819972Y-96109999D01*
X148819986Y-96109998D01*
X148922697Y-96099505D01*
X149089119Y-96044358D01*
X149089124Y-96044356D01*
X149238345Y-95952315D01*
X149362315Y-95828345D01*
X149454356Y-95679124D01*
X149454358Y-95679119D01*
X149509505Y-95512697D01*
X149509506Y-95512690D01*
X149519999Y-95409986D01*
X149520000Y-95409973D01*
X149520000Y-95260000D01*
X148570000Y-95260000D01*
X148070000Y-95260000D01*
X147120001Y-95260000D01*
X143414589Y-95260000D01*
X145002771Y-93671819D01*
X145064094Y-93638334D01*
X145090452Y-93635500D01*
X147088942Y-93635500D01*
X147155981Y-93655185D01*
X147194479Y-93694401D01*
X147277287Y-93828654D01*
X147277289Y-93828657D01*
X147371304Y-93922672D01*
X147404789Y-93983995D01*
X147399805Y-94053687D01*
X147371305Y-94098034D01*
X147277682Y-94191657D01*
X147185643Y-94340875D01*
X147185641Y-94340880D01*
X147130494Y-94507302D01*
X147130493Y-94507309D01*
X147120000Y-94610013D01*
X147120000Y-94760000D01*
X149519999Y-94760000D01*
X149519999Y-94610028D01*
X149519998Y-94610013D01*
X149509505Y-94507302D01*
X149454358Y-94340880D01*
X149454356Y-94340875D01*
X149362315Y-94191654D01*
X149268695Y-94098034D01*
X149235210Y-94036711D01*
X149240194Y-93967019D01*
X149268691Y-93922676D01*
X149362712Y-93828656D01*
X149454814Y-93679334D01*
X149484416Y-93590000D01*
X153500000Y-93590000D01*
X153500000Y-93712844D01*
X153506401Y-93772372D01*
X153506403Y-93772379D01*
X153556645Y-93907086D01*
X153556649Y-93907093D01*
X153642809Y-94022187D01*
X153642812Y-94022190D01*
X153757906Y-94108350D01*
X153757913Y-94108354D01*
X153892620Y-94158596D01*
X153892627Y-94158598D01*
X153952155Y-94164999D01*
X153952172Y-94165000D01*
X154530000Y-94165000D01*
X154530000Y-93590000D01*
X153500000Y-93590000D01*
X149484416Y-93590000D01*
X149509999Y-93512797D01*
X149520500Y-93410009D01*
X149520500Y-93139500D01*
X149540185Y-93072461D01*
X149592989Y-93026706D01*
X149644500Y-93015500D01*
X153376000Y-93015500D01*
X153443039Y-93035185D01*
X153461208Y-93056153D01*
X153463681Y-93053681D01*
X153500000Y-93090000D01*
X153624499Y-93090000D01*
X153691538Y-93109685D01*
X153698794Y-93114722D01*
X153740035Y-93145595D01*
X153757668Y-93158795D01*
X153757671Y-93158797D01*
X153892517Y-93209091D01*
X153892516Y-93209091D01*
X153899444Y-93209835D01*
X153952127Y-93215500D01*
X154906001Y-93215499D01*
X154973039Y-93235183D01*
X155018794Y-93287987D01*
X155030000Y-93339499D01*
X155030000Y-94165000D01*
X155607828Y-94165000D01*
X155607844Y-94164999D01*
X155667372Y-94158598D01*
X155667379Y-94158596D01*
X155802086Y-94108354D01*
X155802093Y-94108350D01*
X155917187Y-94022190D01*
X155917190Y-94022187D01*
X156003350Y-93907093D01*
X156003353Y-93907088D01*
X156013550Y-93879748D01*
X156055420Y-93823813D01*
X156120884Y-93799395D01*
X156189158Y-93814246D01*
X156238564Y-93863650D01*
X156245915Y-93879746D01*
X156256202Y-93907328D01*
X156256206Y-93907335D01*
X156342452Y-94022544D01*
X156342455Y-94022547D01*
X156457664Y-94108793D01*
X156457671Y-94108797D01*
X156502618Y-94125561D01*
X156592517Y-94159091D01*
X156652127Y-94165500D01*
X156730500Y-94165499D01*
X156797538Y-94185183D01*
X156843294Y-94237986D01*
X156854500Y-94289499D01*
X156854500Y-96549546D01*
X156834815Y-96616585D01*
X156818181Y-96637227D01*
X153792077Y-99663330D01*
X153730754Y-99696815D01*
X153661062Y-99691831D01*
X153647698Y-99685928D01*
X153465679Y-99592346D01*
X153465678Y-99592345D01*
X153465675Y-99592344D01*
X153431198Y-99580582D01*
X153209314Y-99504884D01*
X153209300Y-99504881D01*
X153163621Y-99496443D01*
X152942933Y-99455681D01*
X152942930Y-99455680D01*
X152942924Y-99455680D01*
X152672236Y-99445787D01*
X152402986Y-99475413D01*
X152402975Y-99475415D01*
X152140917Y-99543926D01*
X152140912Y-99543927D01*
X152140912Y-99543928D01*
X151898848Y-99646794D01*
X151891610Y-99649870D01*
X151660394Y-99790979D01*
X151660384Y-99790986D01*
X151452180Y-99964253D01*
X151452175Y-99964259D01*
X151271418Y-100165997D01*
X151121957Y-100391907D01*
X151006976Y-100637184D01*
X151006976Y-100637186D01*
X150928942Y-100896557D01*
X150928939Y-100896571D01*
X150918792Y-100965521D01*
X150889500Y-101164561D01*
X150889500Y-101164565D01*
X150889500Y-101967648D01*
X150904323Y-102170155D01*
X150904325Y-102170168D01*
X150963217Y-102434546D01*
X150963220Y-102434553D01*
X151059986Y-102687558D01*
X151192559Y-102923777D01*
X151299528Y-103062307D01*
X151358112Y-103138177D01*
X151553109Y-103326177D01*
X151553114Y-103326182D01*
X151553119Y-103326186D01*
X151773421Y-103483799D01*
X151825133Y-103510386D01*
X152014309Y-103607649D01*
X152014318Y-103607652D01*
X152014325Y-103607656D01*
X152156243Y-103656072D01*
X152270685Y-103695115D01*
X152270688Y-103695115D01*
X152270695Y-103695118D01*
X152537067Y-103744319D01*
X152753625Y-103752233D01*
X152807763Y-103754212D01*
X152807763Y-103754211D01*
X152807765Y-103754212D01*
X153077018Y-103724586D01*
X153339088Y-103656072D01*
X153588390Y-103550130D01*
X153819610Y-103409018D01*
X154027820Y-103235745D01*
X154208582Y-103034002D01*
X154358044Y-102808090D01*
X154473020Y-102562824D01*
X154551060Y-102303431D01*
X154590500Y-102035439D01*
X154590500Y-101967624D01*
X155090000Y-101967624D01*
X155104819Y-102170082D01*
X155104820Y-102170092D01*
X155163699Y-102434404D01*
X155163701Y-102434409D01*
X155260442Y-102687347D01*
X155392976Y-102923498D01*
X155392978Y-102923501D01*
X155558486Y-103137842D01*
X155753430Y-103325791D01*
X155753437Y-103325797D01*
X155973681Y-103483369D01*
X155973686Y-103483372D01*
X156214505Y-103607187D01*
X156214523Y-103607194D01*
X156470812Y-103694629D01*
X156470826Y-103694632D01*
X156689999Y-103735116D01*
X156690000Y-103735116D01*
X156690000Y-102253837D01*
X156771249Y-102284651D01*
X156897660Y-102300000D01*
X156982340Y-102300000D01*
X157108751Y-102284651D01*
X157190000Y-102253837D01*
X157190000Y-103733656D01*
X157276914Y-103724093D01*
X157276928Y-103724091D01*
X157538920Y-103655598D01*
X157788160Y-103549682D01*
X158019313Y-103408612D01*
X158019315Y-103408611D01*
X158227474Y-103235382D01*
X158408184Y-103033695D01*
X158557604Y-102807847D01*
X158672554Y-102562636D01*
X158672554Y-102562634D01*
X158750567Y-102303333D01*
X158750570Y-102303319D01*
X158789999Y-102035398D01*
X158790000Y-102035397D01*
X158790000Y-101850000D01*
X157599329Y-101850000D01*
X157640000Y-101684995D01*
X157640000Y-101515005D01*
X157599329Y-101350000D01*
X158790000Y-101350000D01*
X158790000Y-101232396D01*
X158789999Y-101232375D01*
X158775180Y-101029917D01*
X158775179Y-101029907D01*
X158716300Y-100765595D01*
X158716298Y-100765590D01*
X158619557Y-100512652D01*
X158487023Y-100276501D01*
X158487021Y-100276498D01*
X158321513Y-100062157D01*
X158126569Y-99874208D01*
X158126562Y-99874202D01*
X157906318Y-99716630D01*
X157906313Y-99716627D01*
X157665494Y-99592812D01*
X157665476Y-99592805D01*
X157409182Y-99505369D01*
X157409175Y-99505367D01*
X157190000Y-99464882D01*
X157190000Y-100946162D01*
X157108751Y-100915349D01*
X156982340Y-100900000D01*
X156897660Y-100900000D01*
X156771249Y-100915349D01*
X156690000Y-100946162D01*
X156690000Y-99466343D01*
X156603076Y-99475908D01*
X156603066Y-99475909D01*
X156341079Y-99544401D01*
X156091839Y-99650317D01*
X155860686Y-99791387D01*
X155860684Y-99791388D01*
X155652525Y-99964617D01*
X155471815Y-100166304D01*
X155322395Y-100392152D01*
X155207445Y-100637363D01*
X155207445Y-100637365D01*
X155129432Y-100896666D01*
X155129429Y-100896680D01*
X155090000Y-101164601D01*
X155090000Y-101350000D01*
X156280671Y-101350000D01*
X156240000Y-101515005D01*
X156240000Y-101684995D01*
X156280671Y-101850000D01*
X155090000Y-101850000D01*
X155090000Y-101967624D01*
X154590500Y-101967624D01*
X154590500Y-101232369D01*
X154588089Y-101199434D01*
X154585537Y-101164561D01*
X154575677Y-101029844D01*
X154561348Y-100965521D01*
X154521089Y-100784790D01*
X154525726Y-100715074D01*
X154554439Y-100670149D01*
X157863788Y-97360801D01*
X157876042Y-97350986D01*
X157875859Y-97350764D01*
X157881868Y-97345791D01*
X157881877Y-97345786D01*
X157927949Y-97296722D01*
X157930566Y-97294023D01*
X157950120Y-97274471D01*
X157952576Y-97271303D01*
X157960156Y-97262427D01*
X157990062Y-97230582D01*
X157999713Y-97213024D01*
X158010396Y-97196761D01*
X158022673Y-97180936D01*
X158040021Y-97140844D01*
X158045151Y-97130371D01*
X158066197Y-97092092D01*
X158071180Y-97072680D01*
X158077481Y-97054280D01*
X158085437Y-97035896D01*
X158092270Y-96992748D01*
X158094633Y-96981338D01*
X158105500Y-96939019D01*
X158105500Y-96918983D01*
X158107027Y-96899582D01*
X158108864Y-96887984D01*
X158110160Y-96879804D01*
X158106050Y-96836324D01*
X158105500Y-96824655D01*
X158105500Y-95267500D01*
X163875001Y-95267500D01*
X163875001Y-95404986D01*
X163885494Y-95507697D01*
X163940641Y-95674119D01*
X163940643Y-95674124D01*
X164032684Y-95823345D01*
X164156654Y-95947315D01*
X164305875Y-96039356D01*
X164305880Y-96039358D01*
X164472302Y-96094505D01*
X164472309Y-96094506D01*
X164575019Y-96104999D01*
X164849999Y-96104999D01*
X164850000Y-96104998D01*
X164850000Y-95267500D01*
X163875001Y-95267500D01*
X158105500Y-95267500D01*
X158105500Y-94289499D01*
X158125185Y-94222460D01*
X158177989Y-94176705D01*
X158229500Y-94165499D01*
X158307871Y-94165499D01*
X158307872Y-94165499D01*
X158367483Y-94159091D01*
X158502331Y-94108796D01*
X158617546Y-94022546D01*
X158623052Y-94015191D01*
X158678985Y-93973319D01*
X158722320Y-93965500D01*
X159037257Y-93965500D01*
X159052877Y-93967224D01*
X159052904Y-93966939D01*
X159060660Y-93967671D01*
X159060667Y-93967673D01*
X159127873Y-93965561D01*
X159131768Y-93965500D01*
X159159346Y-93965500D01*
X159159350Y-93965500D01*
X159163324Y-93964997D01*
X159174963Y-93964080D01*
X159218627Y-93962709D01*
X159237869Y-93957117D01*
X159256912Y-93953174D01*
X159276792Y-93950664D01*
X159317401Y-93934585D01*
X159328444Y-93930803D01*
X159370390Y-93918618D01*
X159387629Y-93908422D01*
X159405103Y-93899862D01*
X159423727Y-93892488D01*
X159423727Y-93892487D01*
X159423732Y-93892486D01*
X159459083Y-93866800D01*
X159468814Y-93860408D01*
X159506420Y-93838170D01*
X159520589Y-93823999D01*
X159535379Y-93811368D01*
X159551587Y-93799594D01*
X159579438Y-93765926D01*
X159587279Y-93757309D01*
X162307771Y-91036818D01*
X162369094Y-91003333D01*
X162395452Y-91000499D01*
X163060002Y-91000499D01*
X163060008Y-91000499D01*
X163162797Y-90989999D01*
X163329334Y-90934814D01*
X163478656Y-90842712D01*
X163602712Y-90718656D01*
X163694814Y-90569334D01*
X163749999Y-90402797D01*
X163760500Y-90300009D01*
X163760499Y-90284455D01*
X163780180Y-90217418D01*
X163832982Y-90171660D01*
X163902139Y-90161713D01*
X163965697Y-90190735D01*
X163972180Y-90196771D01*
X164438181Y-90662771D01*
X164471666Y-90724094D01*
X164474500Y-90750452D01*
X164474500Y-91774699D01*
X164454815Y-91841738D01*
X164402011Y-91887493D01*
X164389507Y-91892403D01*
X164356962Y-91903188D01*
X164305668Y-91920185D01*
X164305663Y-91920187D01*
X164156342Y-92012289D01*
X164032289Y-92136342D01*
X163940187Y-92285663D01*
X163940185Y-92285668D01*
X163912349Y-92369670D01*
X163885001Y-92452203D01*
X163885001Y-92452204D01*
X163885000Y-92452204D01*
X163874500Y-92554983D01*
X163874500Y-93330001D01*
X163874501Y-93330019D01*
X163885000Y-93432796D01*
X163885001Y-93432799D01*
X163940185Y-93599331D01*
X163940187Y-93599336D01*
X163962493Y-93635500D01*
X164032288Y-93748656D01*
X164156344Y-93872712D01*
X164159628Y-93874737D01*
X164159653Y-93874753D01*
X164161445Y-93876746D01*
X164162011Y-93877193D01*
X164161934Y-93877289D01*
X164206379Y-93926699D01*
X164217603Y-93995661D01*
X164189761Y-94059744D01*
X164159665Y-94085826D01*
X164156660Y-94087679D01*
X164156655Y-94087683D01*
X164032684Y-94211654D01*
X163940643Y-94360875D01*
X163940641Y-94360880D01*
X163885494Y-94527302D01*
X163885493Y-94527309D01*
X163875000Y-94630013D01*
X163875000Y-94767500D01*
X166324999Y-94767500D01*
X166324999Y-94630028D01*
X166324998Y-94630013D01*
X166314505Y-94527302D01*
X166259358Y-94360880D01*
X166259356Y-94360875D01*
X166167315Y-94211654D01*
X166043344Y-94087683D01*
X166043341Y-94087681D01*
X166040339Y-94085829D01*
X166038713Y-94084021D01*
X166037677Y-94083202D01*
X166037817Y-94083024D01*
X165993617Y-94033880D01*
X165982397Y-93964917D01*
X166010243Y-93900836D01*
X166040344Y-93874754D01*
X166043656Y-93872712D01*
X166167712Y-93748656D01*
X166259814Y-93599334D01*
X166314999Y-93432797D01*
X166325500Y-93330009D01*
X166325499Y-92554992D01*
X166325030Y-92550404D01*
X166314999Y-92452203D01*
X166314998Y-92452200D01*
X166297481Y-92399337D01*
X166259814Y-92285666D01*
X166167712Y-92136344D01*
X166043656Y-92012288D01*
X165894334Y-91920186D01*
X165810495Y-91892404D01*
X165753051Y-91852632D01*
X165726228Y-91788116D01*
X165725500Y-91774699D01*
X165725500Y-90522737D01*
X165727224Y-90507123D01*
X165726938Y-90507096D01*
X165727672Y-90499333D01*
X165725561Y-90432143D01*
X165725500Y-90428249D01*
X165725500Y-90400651D01*
X165725500Y-90400650D01*
X165724997Y-90396670D01*
X165724080Y-90385021D01*
X165723939Y-90380538D01*
X165722709Y-90341372D01*
X165717120Y-90322137D01*
X165713174Y-90303084D01*
X165710664Y-90283208D01*
X165694578Y-90242581D01*
X165690803Y-90231554D01*
X165678617Y-90189610D01*
X165675632Y-90184562D01*
X165668421Y-90172369D01*
X165659860Y-90154893D01*
X165658308Y-90150975D01*
X165652486Y-90136268D01*
X165626809Y-90100926D01*
X165620412Y-90091190D01*
X165598170Y-90053579D01*
X165598167Y-90053576D01*
X165598165Y-90053573D01*
X165584005Y-90039413D01*
X165571370Y-90024620D01*
X165559593Y-90008412D01*
X165525945Y-89980576D01*
X165517304Y-89972713D01*
X163796818Y-88252227D01*
X163763333Y-88190904D01*
X163760499Y-88164546D01*
X163760499Y-87499998D01*
X163760498Y-87499981D01*
X163749999Y-87397203D01*
X163749998Y-87397200D01*
X163708561Y-87272152D01*
X163694814Y-87230666D01*
X163660229Y-87174595D01*
X163641790Y-87107204D01*
X163662713Y-87040541D01*
X163716355Y-86995771D01*
X163765769Y-86985500D01*
X169430500Y-86985500D01*
X169497539Y-87005185D01*
X169543294Y-87057989D01*
X169554500Y-87109500D01*
X169554500Y-92249546D01*
X169534815Y-92316585D01*
X169518181Y-92337227D01*
X166536681Y-95318727D01*
X166475358Y-95352212D01*
X166405666Y-95347228D01*
X166349733Y-95305356D01*
X166341926Y-95284426D01*
X166325000Y-95267500D01*
X165350000Y-95267500D01*
X165350000Y-96104999D01*
X165451047Y-96104999D01*
X165518086Y-96124684D01*
X165563841Y-96177488D01*
X165573785Y-96246646D01*
X165544760Y-96310202D01*
X165538728Y-96316680D01*
X162192077Y-99663330D01*
X162130754Y-99696815D01*
X162061062Y-99691831D01*
X162047698Y-99685928D01*
X161865679Y-99592346D01*
X161865678Y-99592345D01*
X161865675Y-99592344D01*
X161831198Y-99580582D01*
X161609314Y-99504884D01*
X161609300Y-99504881D01*
X161563621Y-99496443D01*
X161342933Y-99455681D01*
X161342930Y-99455680D01*
X161342924Y-99455680D01*
X161072236Y-99445787D01*
X160802986Y-99475413D01*
X160802975Y-99475415D01*
X160540917Y-99543926D01*
X160540912Y-99543927D01*
X160540912Y-99543928D01*
X160298848Y-99646794D01*
X160291610Y-99649870D01*
X160060394Y-99790979D01*
X160060384Y-99790986D01*
X159852180Y-99964253D01*
X159852175Y-99964259D01*
X159671418Y-100165997D01*
X159521957Y-100391907D01*
X159406976Y-100637184D01*
X159406976Y-100637186D01*
X159328942Y-100896557D01*
X159328939Y-100896571D01*
X159318792Y-100965521D01*
X159289500Y-101164561D01*
X159289500Y-101164565D01*
X159289500Y-101967648D01*
X159304323Y-102170155D01*
X159304325Y-102170168D01*
X159363217Y-102434546D01*
X159363220Y-102434553D01*
X159459986Y-102687558D01*
X159592559Y-102923777D01*
X159699528Y-103062307D01*
X159758112Y-103138177D01*
X159953109Y-103326177D01*
X159953114Y-103326182D01*
X159953119Y-103326186D01*
X160173421Y-103483799D01*
X160225133Y-103510386D01*
X160414309Y-103607649D01*
X160414318Y-103607652D01*
X160414325Y-103607656D01*
X160556243Y-103656072D01*
X160670685Y-103695115D01*
X160670688Y-103695115D01*
X160670695Y-103695118D01*
X160937067Y-103744319D01*
X161153625Y-103752233D01*
X161207763Y-103754212D01*
X161207763Y-103754211D01*
X161207765Y-103754212D01*
X161477018Y-103724586D01*
X161739088Y-103656072D01*
X161988390Y-103550130D01*
X162219610Y-103409018D01*
X162427820Y-103235745D01*
X162608582Y-103034002D01*
X162758044Y-102808090D01*
X162873020Y-102562824D01*
X162951060Y-102303431D01*
X162990500Y-102035439D01*
X162990500Y-101967648D01*
X163489500Y-101967648D01*
X163504323Y-102170155D01*
X163504325Y-102170168D01*
X163563217Y-102434546D01*
X163563220Y-102434553D01*
X163659986Y-102687558D01*
X163792559Y-102923777D01*
X163899528Y-103062307D01*
X163958112Y-103138177D01*
X164153109Y-103326177D01*
X164153114Y-103326182D01*
X164153119Y-103326186D01*
X164373421Y-103483799D01*
X164425133Y-103510386D01*
X164614309Y-103607649D01*
X164614318Y-103607652D01*
X164614325Y-103607656D01*
X164756243Y-103656072D01*
X164870685Y-103695115D01*
X164870688Y-103695115D01*
X164870695Y-103695118D01*
X165137067Y-103744319D01*
X165353625Y-103752233D01*
X165407763Y-103754212D01*
X165407763Y-103754211D01*
X165407765Y-103754212D01*
X165677018Y-103724586D01*
X165939088Y-103656072D01*
X166188390Y-103550130D01*
X166419610Y-103409018D01*
X166627820Y-103235745D01*
X166808582Y-103034002D01*
X166958044Y-102808090D01*
X167073020Y-102562824D01*
X167151060Y-102303431D01*
X167167579Y-102191187D01*
X168289500Y-102191187D01*
X168303588Y-102284651D01*
X168328604Y-102450615D01*
X168328605Y-102450617D01*
X168328606Y-102450623D01*
X168405938Y-102701326D01*
X168519767Y-102937696D01*
X168519768Y-102937697D01*
X168519770Y-102937700D01*
X168519772Y-102937704D01*
X168659225Y-103142243D01*
X168667567Y-103154479D01*
X168846014Y-103346801D01*
X168846018Y-103346804D01*
X168846019Y-103346805D01*
X169051143Y-103510386D01*
X169278357Y-103641568D01*
X169522584Y-103737420D01*
X169778370Y-103795802D01*
X169778376Y-103795802D01*
X169778379Y-103795803D01*
X169974484Y-103810499D01*
X169974503Y-103810499D01*
X169974506Y-103810500D01*
X169974508Y-103810500D01*
X170105492Y-103810500D01*
X170105494Y-103810500D01*
X170105496Y-103810499D01*
X170105515Y-103810499D01*
X170301620Y-103795803D01*
X170301622Y-103795802D01*
X170301630Y-103795802D01*
X170557416Y-103737420D01*
X170801643Y-103641568D01*
X171028857Y-103510386D01*
X171233981Y-103346805D01*
X171253116Y-103326183D01*
X171278640Y-103298674D01*
X171412433Y-103154479D01*
X171560228Y-102937704D01*
X171674063Y-102701323D01*
X171751396Y-102450615D01*
X171790500Y-102191182D01*
X171790500Y-101928818D01*
X171751396Y-101669385D01*
X171674063Y-101418677D01*
X171584342Y-101232369D01*
X171560232Y-101182303D01*
X171560231Y-101182302D01*
X171560230Y-101182301D01*
X171560228Y-101182296D01*
X171412433Y-100965521D01*
X171393160Y-100944750D01*
X171233985Y-100773198D01*
X171171985Y-100723755D01*
X171028857Y-100609614D01*
X170801643Y-100478432D01*
X170557416Y-100382580D01*
X170557411Y-100382578D01*
X170557402Y-100382576D01*
X170339818Y-100332914D01*
X170301630Y-100324198D01*
X170301629Y-100324197D01*
X170301625Y-100324197D01*
X170301620Y-100324196D01*
X170105515Y-100309500D01*
X170105494Y-100309500D01*
X169974506Y-100309500D01*
X169974484Y-100309500D01*
X169778379Y-100324196D01*
X169778374Y-100324197D01*
X169522597Y-100382576D01*
X169522578Y-100382582D01*
X169278356Y-100478432D01*
X169051143Y-100609614D01*
X168846014Y-100773198D01*
X168667567Y-100965520D01*
X168519768Y-101182302D01*
X168519767Y-101182303D01*
X168405938Y-101418673D01*
X168328606Y-101669376D01*
X168328605Y-101669381D01*
X168328604Y-101669385D01*
X168313853Y-101767247D01*
X168289500Y-101928812D01*
X168289500Y-102191187D01*
X167167579Y-102191187D01*
X167190500Y-102035439D01*
X167190500Y-101232369D01*
X167188089Y-101199434D01*
X167185537Y-101164561D01*
X167175677Y-101029844D01*
X167163093Y-100973352D01*
X167116782Y-100765453D01*
X167116780Y-100765449D01*
X167116780Y-100765447D01*
X167020014Y-100512442D01*
X166887441Y-100276223D01*
X166721888Y-100061823D01*
X166620693Y-99964259D01*
X166526890Y-99873822D01*
X166526883Y-99873816D01*
X166526881Y-99873814D01*
X166306579Y-99716201D01*
X166268873Y-99696815D01*
X166065690Y-99592350D01*
X166065672Y-99592343D01*
X165809314Y-99504884D01*
X165809300Y-99504881D01*
X165763621Y-99496443D01*
X165542933Y-99455681D01*
X165542930Y-99455680D01*
X165542924Y-99455680D01*
X165272236Y-99445787D01*
X165002986Y-99475413D01*
X165002975Y-99475415D01*
X164740917Y-99543926D01*
X164740912Y-99543927D01*
X164740912Y-99543928D01*
X164498848Y-99646794D01*
X164491610Y-99649870D01*
X164260394Y-99790979D01*
X164260384Y-99790986D01*
X164052180Y-99964253D01*
X164052175Y-99964259D01*
X163871418Y-100165997D01*
X163721957Y-100391907D01*
X163606976Y-100637184D01*
X163606976Y-100637186D01*
X163528942Y-100896557D01*
X163528939Y-100896571D01*
X163518792Y-100965521D01*
X163489500Y-101164561D01*
X163489500Y-101164565D01*
X163489500Y-101967648D01*
X162990500Y-101967648D01*
X162990500Y-101232369D01*
X162988089Y-101199434D01*
X162985537Y-101164561D01*
X162975677Y-101029844D01*
X162961348Y-100965521D01*
X162921089Y-100784790D01*
X162925726Y-100715074D01*
X162954439Y-100670149D01*
X170563786Y-93060802D01*
X170576048Y-93050980D01*
X170575865Y-93050759D01*
X170581868Y-93045791D01*
X170581877Y-93045786D01*
X170627934Y-92996739D01*
X170630582Y-92994006D01*
X170650120Y-92974470D01*
X170652570Y-92971310D01*
X170660154Y-92962429D01*
X170690062Y-92930582D01*
X170699714Y-92913023D01*
X170710389Y-92896772D01*
X170722674Y-92880936D01*
X170740030Y-92840825D01*
X170745161Y-92830354D01*
X170749489Y-92822483D01*
X170766197Y-92792092D01*
X170771180Y-92772680D01*
X170777477Y-92754291D01*
X170785438Y-92735895D01*
X170792270Y-92692748D01*
X170794639Y-92681316D01*
X170801012Y-92656498D01*
X170805500Y-92639019D01*
X170805500Y-92618983D01*
X170807027Y-92599582D01*
X170810160Y-92579804D01*
X170806050Y-92536324D01*
X170805500Y-92524655D01*
X170805500Y-86430844D01*
X170807697Y-86407606D01*
X170809227Y-86399586D01*
X170805745Y-86344241D01*
X170805500Y-86336455D01*
X170805500Y-86320650D01*
X170805499Y-86320646D01*
X170803516Y-86304951D01*
X170802788Y-86297260D01*
X170799304Y-86241862D01*
X170796779Y-86234092D01*
X170791687Y-86211314D01*
X170790664Y-86203208D01*
X170770233Y-86151606D01*
X170767608Y-86144315D01*
X170750467Y-86091559D01*
X170746089Y-86084661D01*
X170735495Y-86063868D01*
X170732486Y-86056268D01*
X170732484Y-86056265D01*
X170732483Y-86056263D01*
X170716930Y-86034857D01*
X170699870Y-86011377D01*
X170695501Y-86004947D01*
X170665785Y-85958122D01*
X170659834Y-85952534D01*
X170644398Y-85935025D01*
X170639594Y-85928413D01*
X170639591Y-85928411D01*
X170639591Y-85928410D01*
X170605741Y-85900407D01*
X170596858Y-85893058D01*
X170591018Y-85887910D01*
X170550582Y-85849938D01*
X170550581Y-85849937D01*
X170550577Y-85849934D01*
X170543415Y-85845997D01*
X170524114Y-85832880D01*
X170517824Y-85827677D01*
X170517823Y-85827676D01*
X170467620Y-85804052D01*
X170460720Y-85800536D01*
X170412092Y-85773803D01*
X170412089Y-85773802D01*
X170412085Y-85773800D01*
X170404174Y-85771769D01*
X170382222Y-85763866D01*
X170374825Y-85760385D01*
X170374821Y-85760384D01*
X170320356Y-85749994D01*
X170312758Y-85748296D01*
X170259023Y-85734500D01*
X170259019Y-85734500D01*
X170250847Y-85734500D01*
X170227615Y-85732304D01*
X170219588Y-85730773D01*
X170219585Y-85730772D01*
X170164241Y-85734255D01*
X170156455Y-85734500D01*
X142322743Y-85734500D01*
X142307122Y-85732775D01*
X142307095Y-85733061D01*
X142299333Y-85732326D01*
X142232113Y-85734439D01*
X142228219Y-85734500D01*
X142200650Y-85734500D01*
X142196673Y-85735002D01*
X142185042Y-85735917D01*
X142141374Y-85737289D01*
X142141368Y-85737290D01*
X142122126Y-85742880D01*
X142103087Y-85746823D01*
X142083217Y-85749334D01*
X142083203Y-85749337D01*
X142042598Y-85765413D01*
X142031554Y-85769194D01*
X141989614Y-85781379D01*
X141989610Y-85781381D01*
X141972366Y-85791579D01*
X141954905Y-85800133D01*
X141936274Y-85807510D01*
X141936262Y-85807517D01*
X141900933Y-85833185D01*
X141891173Y-85839596D01*
X141853580Y-85861829D01*
X141839414Y-85875995D01*
X141824624Y-85888627D01*
X141808414Y-85900404D01*
X141808411Y-85900407D01*
X141780573Y-85934058D01*
X141772711Y-85942697D01*
X137922228Y-89793181D01*
X137860905Y-89826666D01*
X137834547Y-89829500D01*
X137686278Y-89829500D01*
X137619239Y-89809815D01*
X137573484Y-89757011D01*
X137563540Y-89687853D01*
X137574002Y-89652867D01*
X137672554Y-89442636D01*
X137672554Y-89442634D01*
X137750567Y-89183333D01*
X137750570Y-89183319D01*
X137789999Y-88915398D01*
X137790000Y-88915397D01*
X137790000Y-88730000D01*
X136599329Y-88730000D01*
X136640000Y-88564995D01*
X136640000Y-88395005D01*
X136599329Y-88230000D01*
X137790000Y-88230000D01*
X137790000Y-88112396D01*
X137789999Y-88112375D01*
X137775180Y-87909917D01*
X137775179Y-87909907D01*
X137716300Y-87645595D01*
X137716298Y-87645590D01*
X137619557Y-87392652D01*
X137487023Y-87156501D01*
X137487021Y-87156498D01*
X137321513Y-86942157D01*
X137126569Y-86754208D01*
X137126562Y-86754202D01*
X136906318Y-86596630D01*
X136906313Y-86596627D01*
X136665494Y-86472812D01*
X136665476Y-86472805D01*
X136409182Y-86385369D01*
X136409175Y-86385367D01*
X136190000Y-86344882D01*
X136190000Y-87826162D01*
X136108751Y-87795349D01*
X135982340Y-87780000D01*
X135897660Y-87780000D01*
X135771249Y-87795349D01*
X135690000Y-87826162D01*
X135690000Y-86346343D01*
X135603076Y-86355908D01*
X135603066Y-86355909D01*
X135341079Y-86424401D01*
X135091839Y-86530317D01*
X134860686Y-86671387D01*
X134860684Y-86671388D01*
X134652525Y-86844617D01*
X134471815Y-87046304D01*
X134322395Y-87272152D01*
X134207445Y-87517363D01*
X134207445Y-87517365D01*
X134129432Y-87776666D01*
X134129429Y-87776680D01*
X134090000Y-88044601D01*
X134090000Y-88230000D01*
X135280671Y-88230000D01*
X135240000Y-88395005D01*
X135240000Y-88564995D01*
X135280671Y-88730000D01*
X134090000Y-88730000D01*
X134090000Y-88847624D01*
X134104819Y-89050082D01*
X134104820Y-89050092D01*
X134163699Y-89314404D01*
X134163701Y-89314409D01*
X134260443Y-89567350D01*
X134303917Y-89644813D01*
X134319561Y-89712909D01*
X134295907Y-89778652D01*
X134240463Y-89821170D01*
X134195783Y-89829500D01*
X133486831Y-89829500D01*
X133419792Y-89809815D01*
X133374037Y-89757011D01*
X133364093Y-89687853D01*
X133374553Y-89652872D01*
X133473020Y-89442824D01*
X133512040Y-89313127D01*
X133551057Y-89183442D01*
X133551057Y-89183438D01*
X133551060Y-89183431D01*
X133590500Y-88915439D01*
X133590500Y-88112369D01*
X133588089Y-88079434D01*
X133585537Y-88044561D01*
X133575677Y-87909844D01*
X133558964Y-87834815D01*
X133516782Y-87645453D01*
X133516780Y-87645449D01*
X133516780Y-87645447D01*
X133420014Y-87392442D01*
X133287441Y-87156223D01*
X133121888Y-86941823D01*
X133020693Y-86844259D01*
X132926890Y-86753822D01*
X132926883Y-86753816D01*
X132926881Y-86753814D01*
X132706579Y-86596201D01*
X132698874Y-86592239D01*
X132465690Y-86472350D01*
X132465672Y-86472343D01*
X132209314Y-86384884D01*
X132209300Y-86384881D01*
X132163621Y-86376443D01*
X131942933Y-86335681D01*
X131942930Y-86335680D01*
X131942924Y-86335680D01*
X131672236Y-86325787D01*
X131402986Y-86355413D01*
X131402975Y-86355415D01*
X131140917Y-86423926D01*
X131140912Y-86423927D01*
X131140912Y-86423928D01*
X131026982Y-86472343D01*
X130891610Y-86529870D01*
X130660394Y-86670979D01*
X130660384Y-86670986D01*
X130452180Y-86844253D01*
X130452175Y-86844259D01*
X130271418Y-87045997D01*
X130121957Y-87271907D01*
X130006976Y-87517184D01*
X130006976Y-87517185D01*
X129932052Y-87766224D01*
X129893889Y-87824750D01*
X129830141Y-87853352D01*
X129813310Y-87854500D01*
X129462766Y-87854500D01*
X129395727Y-87834815D01*
X129349972Y-87782011D01*
X129341733Y-87757462D01*
X129316781Y-87645451D01*
X129316780Y-87645450D01*
X129316780Y-87645447D01*
X129220014Y-87392442D01*
X129087441Y-87156223D01*
X128921888Y-86941823D01*
X128820693Y-86844259D01*
X128726890Y-86753822D01*
X128726883Y-86753816D01*
X128726881Y-86753814D01*
X128506579Y-86596201D01*
X128498874Y-86592239D01*
X128265690Y-86472350D01*
X128265672Y-86472343D01*
X128009314Y-86384884D01*
X128009300Y-86384881D01*
X127963621Y-86376443D01*
X127742933Y-86335681D01*
X127742930Y-86335680D01*
X127742924Y-86335680D01*
X127472236Y-86325787D01*
X127202986Y-86355413D01*
X127202975Y-86355415D01*
X126940917Y-86423926D01*
X126940912Y-86423927D01*
X126940912Y-86423928D01*
X126826982Y-86472343D01*
X126691610Y-86529870D01*
X126460394Y-86670979D01*
X126460384Y-86670986D01*
X126252180Y-86844253D01*
X126252175Y-86844259D01*
X126071418Y-87045997D01*
X125921957Y-87271907D01*
X125806976Y-87517184D01*
X125806976Y-87517185D01*
X125732052Y-87766224D01*
X125693889Y-87824750D01*
X125630141Y-87853352D01*
X125613310Y-87854500D01*
X125262766Y-87854500D01*
X125195727Y-87834815D01*
X125149972Y-87782011D01*
X125141733Y-87757462D01*
X125116781Y-87645451D01*
X125116780Y-87645450D01*
X125116780Y-87645447D01*
X125020014Y-87392442D01*
X124887441Y-87156223D01*
X124721888Y-86941823D01*
X124620693Y-86844259D01*
X124526890Y-86753822D01*
X124526883Y-86753816D01*
X124526881Y-86753814D01*
X124306579Y-86596201D01*
X124298874Y-86592239D01*
X124065690Y-86472350D01*
X124065672Y-86472343D01*
X123809314Y-86384884D01*
X123809300Y-86384881D01*
X123763621Y-86376443D01*
X123542933Y-86335681D01*
X123542930Y-86335680D01*
X123542924Y-86335680D01*
X123272236Y-86325787D01*
X123002986Y-86355413D01*
X123002975Y-86355415D01*
X122740917Y-86423926D01*
X122740912Y-86423927D01*
X122740912Y-86423928D01*
X122626982Y-86472343D01*
X122491610Y-86529870D01*
X122260394Y-86670979D01*
X122260384Y-86670986D01*
X122052180Y-86844253D01*
X122052175Y-86844259D01*
X121871418Y-87045997D01*
X121721957Y-87271907D01*
X121606976Y-87517184D01*
X121606976Y-87517186D01*
X121528942Y-87776557D01*
X121528939Y-87776571D01*
X121526176Y-87795349D01*
X121489500Y-88044561D01*
X121489500Y-88044565D01*
X121489500Y-88847648D01*
X121504323Y-89050155D01*
X121504325Y-89050168D01*
X121563217Y-89314546D01*
X121563220Y-89314553D01*
X121659986Y-89567558D01*
X121792559Y-89803777D01*
X121932563Y-89985090D01*
X121958112Y-90018177D01*
X122153109Y-90206177D01*
X122153114Y-90206182D01*
X122153119Y-90206186D01*
X122373421Y-90363799D01*
X122437375Y-90396680D01*
X122614309Y-90487649D01*
X122614318Y-90487652D01*
X122614325Y-90487656D01*
X122756243Y-90536072D01*
X122870685Y-90575115D01*
X122870688Y-90575115D01*
X122870695Y-90575118D01*
X123137067Y-90624319D01*
X123353625Y-90632233D01*
X123407763Y-90634212D01*
X123407763Y-90634211D01*
X123407765Y-90634212D01*
X123677018Y-90604586D01*
X123939088Y-90536072D01*
X124188390Y-90430130D01*
X124239955Y-90398659D01*
X124307433Y-90380538D01*
X124373997Y-90401775D01*
X124392233Y-90416824D01*
X125068181Y-91092771D01*
X125101666Y-91154094D01*
X125104500Y-91180452D01*
X125104500Y-92574668D01*
X125084815Y-92641707D01*
X125032011Y-92687462D01*
X124962853Y-92697406D01*
X124899297Y-92668381D01*
X124882354Y-92650454D01*
X124721510Y-92442154D01*
X124526569Y-92254208D01*
X124526562Y-92254202D01*
X124306318Y-92096630D01*
X124306313Y-92096627D01*
X124065494Y-91972812D01*
X124065476Y-91972805D01*
X123809182Y-91885369D01*
X123809175Y-91885367D01*
X123590000Y-91844882D01*
X123590000Y-93326162D01*
X123508751Y-93295349D01*
X123382340Y-93280000D01*
X123297660Y-93280000D01*
X123171249Y-93295349D01*
X123090000Y-93326162D01*
X123090000Y-91846343D01*
X123003076Y-91855908D01*
X123003066Y-91855909D01*
X122741079Y-91924401D01*
X122491839Y-92030317D01*
X122260686Y-92171387D01*
X122260684Y-92171388D01*
X122052525Y-92344617D01*
X121871815Y-92546304D01*
X121722395Y-92772152D01*
X121607445Y-93017363D01*
X121607445Y-93017365D01*
X121529432Y-93276666D01*
X121529429Y-93276680D01*
X121490000Y-93544601D01*
X121490000Y-93730000D01*
X122680671Y-93730000D01*
X122640000Y-93895005D01*
X122640000Y-94064995D01*
X122680671Y-94230000D01*
X121490000Y-94230000D01*
X121490000Y-94347624D01*
X121504819Y-94550082D01*
X121504820Y-94550092D01*
X121563699Y-94814404D01*
X121563701Y-94814409D01*
X121660442Y-95067347D01*
X121792976Y-95303498D01*
X121792978Y-95303501D01*
X121958486Y-95517842D01*
X122153430Y-95705791D01*
X122153437Y-95705797D01*
X122373681Y-95863369D01*
X122373686Y-95863372D01*
X122614505Y-95987187D01*
X122614523Y-95987194D01*
X122870812Y-96074629D01*
X122870826Y-96074632D01*
X123089999Y-96115116D01*
X123090000Y-96115116D01*
X123090000Y-94633837D01*
X123171249Y-94664651D01*
X123297660Y-94680000D01*
X123382340Y-94680000D01*
X123508751Y-94664651D01*
X123590000Y-94633837D01*
X123590000Y-96113656D01*
X123676914Y-96104093D01*
X123676928Y-96104091D01*
X123938920Y-96035598D01*
X124188160Y-95929682D01*
X124419313Y-95788612D01*
X124419315Y-95788611D01*
X124627474Y-95615382D01*
X124808184Y-95413695D01*
X124877084Y-95309553D01*
X124930491Y-95264504D01*
X124999775Y-95255479D01*
X125062940Y-95285346D01*
X125099931Y-95344620D01*
X125104500Y-95377972D01*
X125104500Y-98899546D01*
X125084815Y-98966585D01*
X125068181Y-98987227D01*
X124392077Y-99663330D01*
X124330754Y-99696815D01*
X124261062Y-99691831D01*
X124247698Y-99685928D01*
X124065679Y-99592346D01*
X124065678Y-99592345D01*
X124065675Y-99592344D01*
X124031198Y-99580582D01*
X123809314Y-99504884D01*
X123809300Y-99504881D01*
X123763621Y-99496443D01*
X123542933Y-99455681D01*
X123542930Y-99455680D01*
X123542924Y-99455680D01*
X123272236Y-99445787D01*
X123002986Y-99475413D01*
X123002975Y-99475415D01*
X122740917Y-99543926D01*
X122740912Y-99543927D01*
X122740912Y-99543928D01*
X122498848Y-99646794D01*
X122491610Y-99649870D01*
X122260394Y-99790979D01*
X122260384Y-99790986D01*
X122052180Y-99964253D01*
X122052175Y-99964259D01*
X121871418Y-100165997D01*
X121721957Y-100391907D01*
X121606976Y-100637184D01*
X121606976Y-100637186D01*
X121528942Y-100896557D01*
X121528939Y-100896571D01*
X121518792Y-100965521D01*
X121489500Y-101164561D01*
X121489500Y-101164565D01*
X121489500Y-101967648D01*
X121504323Y-102170155D01*
X121504325Y-102170168D01*
X121563217Y-102434546D01*
X121563220Y-102434553D01*
X121659986Y-102687558D01*
X121792559Y-102923777D01*
X121899528Y-103062307D01*
X121958112Y-103138177D01*
X122153109Y-103326177D01*
X122153114Y-103326182D01*
X122153119Y-103326186D01*
X122373421Y-103483799D01*
X122425133Y-103510386D01*
X122614309Y-103607649D01*
X122614318Y-103607652D01*
X122614325Y-103607656D01*
X122756243Y-103656072D01*
X122870685Y-103695115D01*
X122870688Y-103695115D01*
X122870695Y-103695118D01*
X123137067Y-103744319D01*
X123353625Y-103752233D01*
X123407763Y-103754212D01*
X123407763Y-103754211D01*
X123407765Y-103754212D01*
X123677018Y-103724586D01*
X123939088Y-103656072D01*
X124188390Y-103550130D01*
X124419610Y-103409018D01*
X124627820Y-103235745D01*
X124808582Y-103034002D01*
X124958044Y-102808090D01*
X125073020Y-102562824D01*
X125096457Y-102484922D01*
X125147948Y-102313776D01*
X125186111Y-102255250D01*
X125249859Y-102226648D01*
X125266690Y-102225500D01*
X125617234Y-102225500D01*
X125684273Y-102245185D01*
X125730028Y-102297989D01*
X125738267Y-102322538D01*
X125763218Y-102434548D01*
X125763220Y-102434553D01*
X125859986Y-102687558D01*
X125992559Y-102923777D01*
X126099528Y-103062307D01*
X126158112Y-103138177D01*
X126353109Y-103326177D01*
X126353114Y-103326182D01*
X126353119Y-103326186D01*
X126573421Y-103483799D01*
X126625133Y-103510386D01*
X126814309Y-103607649D01*
X126814318Y-103607652D01*
X126814325Y-103607656D01*
X126956243Y-103656072D01*
X127070685Y-103695115D01*
X127070688Y-103695115D01*
X127070695Y-103695118D01*
X127337067Y-103744319D01*
X127553625Y-103752233D01*
X127607763Y-103754212D01*
X127607763Y-103754211D01*
X127607765Y-103754212D01*
X127877018Y-103724586D01*
X128139088Y-103656072D01*
X128388390Y-103550130D01*
X128619610Y-103409018D01*
X128827820Y-103235745D01*
X129008582Y-103034002D01*
X129158044Y-102808090D01*
X129273020Y-102562824D01*
X129296457Y-102484922D01*
X129347948Y-102313776D01*
X129386111Y-102255250D01*
X129449859Y-102226648D01*
X129466690Y-102225500D01*
X129817234Y-102225500D01*
X129884273Y-102245185D01*
X129930028Y-102297989D01*
X129938267Y-102322538D01*
X129958910Y-102415206D01*
X129954273Y-102484922D01*
X129925558Y-102529849D01*
X129681208Y-102774199D01*
X129668951Y-102784020D01*
X129669134Y-102784241D01*
X129663122Y-102789214D01*
X129617098Y-102838223D01*
X129614391Y-102841016D01*
X129594889Y-102860517D01*
X129594875Y-102860534D01*
X129592407Y-102863715D01*
X129584843Y-102872570D01*
X129554937Y-102904418D01*
X129554936Y-102904420D01*
X129545284Y-102921976D01*
X129534610Y-102938226D01*
X129522329Y-102954061D01*
X129522324Y-102954068D01*
X129504975Y-102994158D01*
X129499838Y-103004644D01*
X129478803Y-103042906D01*
X129473822Y-103062307D01*
X129467521Y-103080710D01*
X129459562Y-103099102D01*
X129459561Y-103099105D01*
X129452728Y-103142243D01*
X129450360Y-103153674D01*
X129439501Y-103195971D01*
X129439500Y-103195982D01*
X129439500Y-103216016D01*
X129437973Y-103235413D01*
X129437249Y-103239983D01*
X129434840Y-103255194D01*
X129434840Y-103255195D01*
X129438950Y-103298674D01*
X129439500Y-103310343D01*
X129439500Y-105929217D01*
X129419815Y-105996256D01*
X129367011Y-106042011D01*
X129297853Y-106051955D01*
X129234297Y-106022930D01*
X129207366Y-105989905D01*
X129122937Y-105839470D01*
X129087441Y-105776223D01*
X128921888Y-105561823D01*
X128861936Y-105504022D01*
X128726890Y-105373822D01*
X128726883Y-105373816D01*
X128726881Y-105373814D01*
X128506579Y-105216201D01*
X128498874Y-105212239D01*
X128265690Y-105092350D01*
X128265672Y-105092343D01*
X128009314Y-105004884D01*
X128009300Y-105004881D01*
X127963621Y-104996443D01*
X127742933Y-104955681D01*
X127742930Y-104955680D01*
X127742924Y-104955680D01*
X127472236Y-104945787D01*
X127202986Y-104975413D01*
X127202975Y-104975415D01*
X126940917Y-105043926D01*
X126940912Y-105043927D01*
X126940912Y-105043928D01*
X126791818Y-105107286D01*
X126691610Y-105149870D01*
X126460394Y-105290979D01*
X126460384Y-105290986D01*
X126252180Y-105464253D01*
X126252175Y-105464259D01*
X126071418Y-105665997D01*
X125921957Y-105891907D01*
X125806976Y-106137184D01*
X125806976Y-106137185D01*
X125732052Y-106386224D01*
X125693889Y-106444750D01*
X125630141Y-106473352D01*
X125613310Y-106474500D01*
X125262766Y-106474500D01*
X125195727Y-106454815D01*
X125149972Y-106402011D01*
X125141733Y-106377462D01*
X125116781Y-106265451D01*
X125116780Y-106265450D01*
X125116780Y-106265447D01*
X125020014Y-106012442D01*
X124887441Y-105776223D01*
X124721888Y-105561823D01*
X124661936Y-105504022D01*
X124526890Y-105373822D01*
X124526883Y-105373816D01*
X124526881Y-105373814D01*
X124306579Y-105216201D01*
X124298874Y-105212239D01*
X124065690Y-105092350D01*
X124065672Y-105092343D01*
X123809314Y-105004884D01*
X123809300Y-105004881D01*
X123763621Y-104996443D01*
X123542933Y-104955681D01*
X123542930Y-104955680D01*
X123542924Y-104955680D01*
X123272236Y-104945787D01*
X123002986Y-104975413D01*
X123002975Y-104975415D01*
X122740917Y-105043926D01*
X122740912Y-105043927D01*
X122740912Y-105043928D01*
X122591818Y-105107286D01*
X122491610Y-105149870D01*
X122260394Y-105290979D01*
X122260384Y-105290986D01*
X122052180Y-105464253D01*
X122052175Y-105464259D01*
X121871418Y-105665997D01*
X121721957Y-105891907D01*
X121606976Y-106137184D01*
X121606976Y-106137186D01*
X121528942Y-106396557D01*
X121528939Y-106396571D01*
X121526176Y-106415349D01*
X121489500Y-106664561D01*
X121489500Y-106664565D01*
X121489500Y-107467648D01*
X121504323Y-107670155D01*
X121504325Y-107670168D01*
X121558910Y-107915207D01*
X121554273Y-107984922D01*
X121525558Y-108029849D01*
X120997228Y-108558181D01*
X120935905Y-108591666D01*
X120909547Y-108594500D01*
X120799276Y-108594500D01*
X120732237Y-108574815D01*
X120686482Y-108522011D01*
X120676538Y-108452853D01*
X120695860Y-108402081D01*
X120711189Y-108378911D01*
X120758044Y-108308090D01*
X120873020Y-108062824D01*
X120912040Y-107933127D01*
X120951057Y-107803442D01*
X120951057Y-107803438D01*
X120951060Y-107803431D01*
X120990500Y-107535439D01*
X120990500Y-106732369D01*
X120988089Y-106699434D01*
X120983253Y-106633355D01*
X120975677Y-106529844D01*
X120958964Y-106454815D01*
X120916782Y-106265453D01*
X120916780Y-106265449D01*
X120916780Y-106265447D01*
X120820014Y-106012442D01*
X120687441Y-105776223D01*
X120521888Y-105561823D01*
X120461936Y-105504022D01*
X120326890Y-105373822D01*
X120326883Y-105373816D01*
X120326881Y-105373814D01*
X120106579Y-105216201D01*
X120098874Y-105212239D01*
X119865690Y-105092350D01*
X119865672Y-105092343D01*
X119609314Y-105004884D01*
X119609300Y-105004881D01*
X119563621Y-104996443D01*
X119342933Y-104955681D01*
X119342930Y-104955680D01*
X119342924Y-104955680D01*
X119072236Y-104945787D01*
X118802986Y-104975413D01*
X118802975Y-104975415D01*
X118540917Y-105043926D01*
X118540912Y-105043927D01*
X118540912Y-105043928D01*
X118391818Y-105107286D01*
X118291610Y-105149870D01*
X118060394Y-105290979D01*
X118060384Y-105290986D01*
X117852180Y-105464253D01*
X117852175Y-105464259D01*
X117671418Y-105665997D01*
X117521957Y-105891907D01*
X117406976Y-106137184D01*
X117406976Y-106137186D01*
X117328942Y-106396557D01*
X117328939Y-106396571D01*
X117326176Y-106415349D01*
X117289500Y-106664561D01*
X117289500Y-106664565D01*
X117289500Y-106734355D01*
X117269815Y-106801394D01*
X117217011Y-106847149D01*
X117147853Y-106857093D01*
X117084297Y-106828068D01*
X117077819Y-106822036D01*
X116976819Y-106721036D01*
X116943334Y-106659713D01*
X116940500Y-106633355D01*
X116940500Y-101967624D01*
X117290000Y-101967624D01*
X117304819Y-102170082D01*
X117304820Y-102170092D01*
X117363699Y-102434404D01*
X117363701Y-102434409D01*
X117460442Y-102687347D01*
X117592976Y-102923498D01*
X117592978Y-102923501D01*
X117758486Y-103137842D01*
X117953430Y-103325791D01*
X117953437Y-103325797D01*
X118173681Y-103483369D01*
X118173686Y-103483372D01*
X118414505Y-103607187D01*
X118414523Y-103607194D01*
X118670812Y-103694629D01*
X118670826Y-103694632D01*
X118889999Y-103735116D01*
X118890000Y-103735116D01*
X118890000Y-102253837D01*
X118971249Y-102284651D01*
X119097660Y-102300000D01*
X119182340Y-102300000D01*
X119308751Y-102284651D01*
X119390000Y-102253837D01*
X119390000Y-103733656D01*
X119476914Y-103724093D01*
X119476928Y-103724091D01*
X119738920Y-103655598D01*
X119988160Y-103549682D01*
X120219313Y-103408612D01*
X120219315Y-103408611D01*
X120427474Y-103235382D01*
X120608184Y-103033695D01*
X120757604Y-102807847D01*
X120872554Y-102562636D01*
X120872554Y-102562634D01*
X120950567Y-102303333D01*
X120950570Y-102303319D01*
X120989999Y-102035398D01*
X120990000Y-102035397D01*
X120990000Y-101850000D01*
X119799329Y-101850000D01*
X119840000Y-101684995D01*
X119840000Y-101515005D01*
X119799329Y-101350000D01*
X120990000Y-101350000D01*
X120990000Y-101232396D01*
X120989999Y-101232375D01*
X120975180Y-101029917D01*
X120975179Y-101029907D01*
X120916300Y-100765595D01*
X120916298Y-100765590D01*
X120819557Y-100512652D01*
X120687023Y-100276501D01*
X120687021Y-100276498D01*
X120521513Y-100062157D01*
X120326569Y-99874208D01*
X120326562Y-99874202D01*
X120106318Y-99716630D01*
X120106313Y-99716627D01*
X119865494Y-99592812D01*
X119865476Y-99592805D01*
X119609182Y-99505369D01*
X119609175Y-99505367D01*
X119390000Y-99464882D01*
X119390000Y-100946162D01*
X119308751Y-100915349D01*
X119182340Y-100900000D01*
X119097660Y-100900000D01*
X118971249Y-100915349D01*
X118890000Y-100946162D01*
X118890000Y-99466343D01*
X118803076Y-99475908D01*
X118803066Y-99475909D01*
X118541079Y-99544401D01*
X118291839Y-99650317D01*
X118060686Y-99791387D01*
X118060684Y-99791388D01*
X117852525Y-99964617D01*
X117671815Y-100166304D01*
X117522395Y-100392152D01*
X117407445Y-100637363D01*
X117407445Y-100637365D01*
X117329432Y-100896666D01*
X117329429Y-100896680D01*
X117290000Y-101164601D01*
X117290000Y-101350000D01*
X118480671Y-101350000D01*
X118440000Y-101515005D01*
X118440000Y-101684995D01*
X118480671Y-101850000D01*
X117290000Y-101850000D01*
X117290000Y-101967624D01*
X116940500Y-101967624D01*
X116940500Y-94347624D01*
X117290000Y-94347624D01*
X117304819Y-94550082D01*
X117304820Y-94550092D01*
X117363699Y-94814404D01*
X117363701Y-94814409D01*
X117460442Y-95067347D01*
X117592976Y-95303498D01*
X117592978Y-95303501D01*
X117758486Y-95517842D01*
X117953430Y-95705791D01*
X117953437Y-95705797D01*
X118173681Y-95863369D01*
X118173686Y-95863372D01*
X118414505Y-95987187D01*
X118414523Y-95987194D01*
X118670812Y-96074629D01*
X118670826Y-96074632D01*
X118889999Y-96115116D01*
X118890000Y-96115116D01*
X118890000Y-94633837D01*
X118971249Y-94664651D01*
X119097660Y-94680000D01*
X119182340Y-94680000D01*
X119308751Y-94664651D01*
X119390000Y-94633837D01*
X119390000Y-96113656D01*
X119476914Y-96104093D01*
X119476928Y-96104091D01*
X119738920Y-96035598D01*
X119988160Y-95929682D01*
X120219313Y-95788612D01*
X120219315Y-95788611D01*
X120427474Y-95615382D01*
X120608184Y-95413695D01*
X120757604Y-95187847D01*
X120872554Y-94942636D01*
X120872554Y-94942634D01*
X120950567Y-94683333D01*
X120950570Y-94683319D01*
X120989999Y-94415398D01*
X120990000Y-94415397D01*
X120990000Y-94230000D01*
X119799329Y-94230000D01*
X119840000Y-94064995D01*
X119840000Y-93895005D01*
X119799329Y-93730000D01*
X120990000Y-93730000D01*
X120990000Y-93612396D01*
X120989999Y-93612375D01*
X120975180Y-93409917D01*
X120975179Y-93409907D01*
X120916300Y-93145595D01*
X120916298Y-93145590D01*
X120819557Y-92892652D01*
X120687023Y-92656501D01*
X120687021Y-92656498D01*
X120521513Y-92442157D01*
X120326569Y-92254208D01*
X120326562Y-92254202D01*
X120106318Y-92096630D01*
X120106313Y-92096627D01*
X119865494Y-91972812D01*
X119865476Y-91972805D01*
X119609182Y-91885369D01*
X119609175Y-91885367D01*
X119390000Y-91844882D01*
X119390000Y-93326162D01*
X119308751Y-93295349D01*
X119182340Y-93280000D01*
X119097660Y-93280000D01*
X118971249Y-93295349D01*
X118890000Y-93326162D01*
X118890000Y-91846343D01*
X118803076Y-91855908D01*
X118803066Y-91855909D01*
X118541079Y-91924401D01*
X118291839Y-92030317D01*
X118060686Y-92171387D01*
X118060684Y-92171388D01*
X117852525Y-92344617D01*
X117671815Y-92546304D01*
X117522395Y-92772152D01*
X117407445Y-93017363D01*
X117407445Y-93017365D01*
X117329432Y-93276666D01*
X117329429Y-93276680D01*
X117290000Y-93544601D01*
X117290000Y-93730000D01*
X118480671Y-93730000D01*
X118440000Y-93895005D01*
X118440000Y-94064995D01*
X118480671Y-94230000D01*
X117290000Y-94230000D01*
X117290000Y-94347624D01*
X116940500Y-94347624D01*
X116940500Y-91615451D01*
X116960185Y-91548412D01*
X116976815Y-91527774D01*
X117843168Y-90661420D01*
X117904489Y-90627937D01*
X117943448Y-90625745D01*
X117989992Y-90630500D01*
X117989997Y-90630500D01*
X120290003Y-90630500D01*
X120290008Y-90630500D01*
X120392797Y-90619999D01*
X120559334Y-90564814D01*
X120708655Y-90472711D01*
X120832711Y-90348655D01*
X120924814Y-90199334D01*
X120979999Y-90032797D01*
X120990500Y-89930008D01*
X120990500Y-87029992D01*
X120979999Y-86927203D01*
X120924814Y-86760666D01*
X120869746Y-86671388D01*
X120832713Y-86611348D01*
X120832710Y-86611344D01*
X120708655Y-86487289D01*
X120708651Y-86487286D01*
X120559337Y-86395187D01*
X120559335Y-86395186D01*
X120439307Y-86355413D01*
X120392797Y-86340001D01*
X120392795Y-86340000D01*
X120290015Y-86329500D01*
X120290008Y-86329500D01*
X117989992Y-86329500D01*
X117989984Y-86329500D01*
X117887204Y-86340000D01*
X117887203Y-86340001D01*
X117720664Y-86395186D01*
X117720662Y-86395187D01*
X117571348Y-86487286D01*
X117571344Y-86487289D01*
X117447289Y-86611344D01*
X117447286Y-86611348D01*
X117355187Y-86760662D01*
X117355186Y-86760664D01*
X117300001Y-86927203D01*
X117300000Y-86927204D01*
X117289500Y-87029984D01*
X117289500Y-89394546D01*
X117269815Y-89461585D01*
X117253181Y-89482227D01*
X115931208Y-90804199D01*
X115918951Y-90814020D01*
X115919134Y-90814241D01*
X115913122Y-90819214D01*
X115867098Y-90868223D01*
X115864391Y-90871016D01*
X115844889Y-90890517D01*
X115844875Y-90890534D01*
X115842407Y-90893715D01*
X115834843Y-90902570D01*
X115804937Y-90934418D01*
X115804936Y-90934420D01*
X115795284Y-90951976D01*
X115784610Y-90968226D01*
X115772329Y-90984061D01*
X115772324Y-90984068D01*
X115754975Y-91024158D01*
X115749838Y-91034644D01*
X115728803Y-91072906D01*
X115723822Y-91092307D01*
X115717521Y-91110710D01*
X115709562Y-91129102D01*
X115709561Y-91129105D01*
X115702728Y-91172243D01*
X115700360Y-91183674D01*
X115689501Y-91225971D01*
X115689500Y-91225982D01*
X115689500Y-91246016D01*
X115687973Y-91265415D01*
X115684840Y-91285194D01*
X115684840Y-91285195D01*
X115688950Y-91328674D01*
X115689500Y-91340343D01*
X115689500Y-92019981D01*
X115669815Y-92087020D01*
X115617011Y-92132775D01*
X115547853Y-92142719D01*
X115488188Y-92116928D01*
X115428860Y-92069616D01*
X115424223Y-92066939D01*
X115201643Y-91938432D01*
X114957416Y-91842580D01*
X114957411Y-91842578D01*
X114957402Y-91842576D01*
X114739818Y-91792914D01*
X114701630Y-91784198D01*
X114701629Y-91784197D01*
X114701625Y-91784197D01*
X114701620Y-91784196D01*
X114505515Y-91769500D01*
X114505494Y-91769500D01*
X114374506Y-91769500D01*
X114374484Y-91769500D01*
X114178379Y-91784196D01*
X114178374Y-91784197D01*
X113922597Y-91842576D01*
X113922578Y-91842582D01*
X113678356Y-91938432D01*
X113451143Y-92069614D01*
X113246014Y-92233198D01*
X113067567Y-92425520D01*
X112919768Y-92642302D01*
X112919767Y-92642303D01*
X112805938Y-92878673D01*
X112728606Y-93129376D01*
X112728605Y-93129381D01*
X112728604Y-93129385D01*
X112721563Y-93176098D01*
X112689500Y-93388812D01*
X112689500Y-93651187D01*
X112709794Y-93785823D01*
X112728604Y-93910615D01*
X112728605Y-93910617D01*
X112728606Y-93910623D01*
X112783222Y-94087683D01*
X112805096Y-94158598D01*
X112805938Y-94161326D01*
X112919767Y-94397696D01*
X112919768Y-94397697D01*
X112919770Y-94397700D01*
X112919772Y-94397704D01*
X113064522Y-94610013D01*
X113067567Y-94614479D01*
X113246014Y-94806801D01*
X113246018Y-94806804D01*
X113246019Y-94806805D01*
X113451143Y-94970386D01*
X113678357Y-95101568D01*
X113922584Y-95197420D01*
X114178370Y-95255802D01*
X114178376Y-95255802D01*
X114178379Y-95255803D01*
X114374484Y-95270499D01*
X114374503Y-95270499D01*
X114374506Y-95270500D01*
X114374508Y-95270500D01*
X114505492Y-95270500D01*
X114505494Y-95270500D01*
X114505496Y-95270499D01*
X114505515Y-95270499D01*
X114701620Y-95255803D01*
X114701622Y-95255802D01*
X114701630Y-95255802D01*
X114957416Y-95197420D01*
X115201643Y-95101568D01*
X115428857Y-94970386D01*
X115488189Y-94923070D01*
X115552873Y-94896663D01*
X115621569Y-94909418D01*
X115672463Y-94957289D01*
X115689500Y-95020018D01*
X115689500Y-100559981D01*
X115669815Y-100627020D01*
X115617011Y-100672775D01*
X115547853Y-100682719D01*
X115488188Y-100656928D01*
X115428860Y-100609616D01*
X115405905Y-100596363D01*
X115201643Y-100478432D01*
X114957416Y-100382580D01*
X114957411Y-100382578D01*
X114957402Y-100382576D01*
X114739818Y-100332914D01*
X114701630Y-100324198D01*
X114701629Y-100324197D01*
X114701625Y-100324197D01*
X114701620Y-100324196D01*
X114505515Y-100309500D01*
X114505494Y-100309500D01*
X114374506Y-100309500D01*
X114374484Y-100309500D01*
X114178379Y-100324196D01*
X114178374Y-100324197D01*
X113922597Y-100382576D01*
X113922578Y-100382582D01*
X113678356Y-100478432D01*
X113451143Y-100609614D01*
X113246014Y-100773198D01*
X113067567Y-100965520D01*
X112919768Y-101182302D01*
X112919767Y-101182303D01*
X112805938Y-101418673D01*
X112728606Y-101669376D01*
X112728605Y-101669381D01*
X112728604Y-101669385D01*
X112713853Y-101767247D01*
X112689500Y-101928812D01*
X112689500Y-102191187D01*
X112395000Y-102191187D01*
X112395000Y-85214000D01*
X112414685Y-85146961D01*
X112467489Y-85101206D01*
X112519000Y-85090000D01*
X171961000Y-85090000D01*
X172028039Y-85109685D01*
G37*
%TD.AperFunction*%
%TD*%
M02*
