%TF.GenerationSoftware,KiCad,Pcbnew,7.0.11*%
%TF.CreationDate,2024-08-14T14:47:57+09:00*%
%TF.ProjectId,mac_psu_atx_adapter,6d61635f-7073-4755-9f61-74785f616461,rev?*%
%TF.SameCoordinates,Original*%
%TF.FileFunction,Legend,Top*%
%TF.FilePolarity,Positive*%
%FSLAX46Y46*%
G04 Gerber Fmt 4.6, Leading zero omitted, Abs format (unit mm)*
G04 Created by KiCad (PCBNEW 7.0.11) date 2024-08-14 14:47:57*
%MOMM*%
%LPD*%
G01*
G04 APERTURE LIST*
G04 Aperture macros list*
%AMRoundRect*
0 Rectangle with rounded corners*
0 $1 Rounding radius*
0 $2 $3 $4 $5 $6 $7 $8 $9 X,Y pos of 4 corners*
0 Add a 4 corners polygon primitive as box body*
4,1,4,$2,$3,$4,$5,$6,$7,$8,$9,$2,$3,0*
0 Add four circle primitives for the rounded corners*
1,1,$1+$1,$2,$3*
1,1,$1+$1,$4,$5*
1,1,$1+$1,$6,$7*
1,1,$1+$1,$8,$9*
0 Add four rect primitives between the rounded corners*
20,1,$1+$1,$2,$3,$4,$5,0*
20,1,$1+$1,$4,$5,$6,$7,0*
20,1,$1+$1,$6,$7,$8,$9,0*
20,1,$1+$1,$8,$9,$2,$3,0*%
G04 Aperture macros list end*
%ADD10C,0.150000*%
%ADD11C,0.120000*%
%ADD12RoundRect,0.250000X-0.475000X0.337500X-0.475000X-0.337500X0.475000X-0.337500X0.475000X0.337500X0*%
%ADD13C,3.000000*%
%ADD14RoundRect,0.250001X1.099999X1.399999X-1.099999X1.399999X-1.099999X-1.399999X1.099999X-1.399999X0*%
%ADD15O,2.700000X3.300000*%
%ADD16RoundRect,0.250000X-0.450000X0.350000X-0.450000X-0.350000X0.450000X-0.350000X0.450000X0.350000X0*%
%ADD17R,1.560000X0.650000*%
G04 APERTURE END LIST*
D10*
X167139580Y-94146666D02*
X167187200Y-94194285D01*
X167187200Y-94194285D02*
X167234819Y-94337142D01*
X167234819Y-94337142D02*
X167234819Y-94432380D01*
X167234819Y-94432380D02*
X167187200Y-94575237D01*
X167187200Y-94575237D02*
X167091961Y-94670475D01*
X167091961Y-94670475D02*
X166996723Y-94718094D01*
X166996723Y-94718094D02*
X166806247Y-94765713D01*
X166806247Y-94765713D02*
X166663390Y-94765713D01*
X166663390Y-94765713D02*
X166472914Y-94718094D01*
X166472914Y-94718094D02*
X166377676Y-94670475D01*
X166377676Y-94670475D02*
X166282438Y-94575237D01*
X166282438Y-94575237D02*
X166234819Y-94432380D01*
X166234819Y-94432380D02*
X166234819Y-94337142D01*
X166234819Y-94337142D02*
X166282438Y-94194285D01*
X166282438Y-94194285D02*
X166330057Y-94146666D01*
X167234819Y-93194285D02*
X167234819Y-93765713D01*
X167234819Y-93479999D02*
X166234819Y-93479999D01*
X166234819Y-93479999D02*
X166377676Y-93575237D01*
X166377676Y-93575237D02*
X166472914Y-93670475D01*
X166472914Y-93670475D02*
X166520533Y-93765713D01*
X141906666Y-110004819D02*
X141906666Y-110719104D01*
X141906666Y-110719104D02*
X141859047Y-110861961D01*
X141859047Y-110861961D02*
X141763809Y-110957200D01*
X141763809Y-110957200D02*
X141620952Y-111004819D01*
X141620952Y-111004819D02*
X141525714Y-111004819D01*
X142335238Y-110100057D02*
X142382857Y-110052438D01*
X142382857Y-110052438D02*
X142478095Y-110004819D01*
X142478095Y-110004819D02*
X142716190Y-110004819D01*
X142716190Y-110004819D02*
X142811428Y-110052438D01*
X142811428Y-110052438D02*
X142859047Y-110100057D01*
X142859047Y-110100057D02*
X142906666Y-110195295D01*
X142906666Y-110195295D02*
X142906666Y-110290533D01*
X142906666Y-110290533D02*
X142859047Y-110433390D01*
X142859047Y-110433390D02*
X142287619Y-111004819D01*
X142287619Y-111004819D02*
X142906666Y-111004819D01*
X150424819Y-94176666D02*
X149948628Y-94509999D01*
X150424819Y-94748094D02*
X149424819Y-94748094D01*
X149424819Y-94748094D02*
X149424819Y-94367142D01*
X149424819Y-94367142D02*
X149472438Y-94271904D01*
X149472438Y-94271904D02*
X149520057Y-94224285D01*
X149520057Y-94224285D02*
X149615295Y-94176666D01*
X149615295Y-94176666D02*
X149758152Y-94176666D01*
X149758152Y-94176666D02*
X149853390Y-94224285D01*
X149853390Y-94224285D02*
X149901009Y-94271904D01*
X149901009Y-94271904D02*
X149948628Y-94367142D01*
X149948628Y-94367142D02*
X149948628Y-94748094D01*
X150424819Y-93224285D02*
X150424819Y-93795713D01*
X150424819Y-93509999D02*
X149424819Y-93509999D01*
X149424819Y-93509999D02*
X149567676Y-93605237D01*
X149567676Y-93605237D02*
X149662914Y-93700475D01*
X149662914Y-93700475D02*
X149710533Y-93795713D01*
X164664819Y-89066666D02*
X164188628Y-89399999D01*
X164664819Y-89638094D02*
X163664819Y-89638094D01*
X163664819Y-89638094D02*
X163664819Y-89257142D01*
X163664819Y-89257142D02*
X163712438Y-89161904D01*
X163712438Y-89161904D02*
X163760057Y-89114285D01*
X163760057Y-89114285D02*
X163855295Y-89066666D01*
X163855295Y-89066666D02*
X163998152Y-89066666D01*
X163998152Y-89066666D02*
X164093390Y-89114285D01*
X164093390Y-89114285D02*
X164141009Y-89161904D01*
X164141009Y-89161904D02*
X164188628Y-89257142D01*
X164188628Y-89257142D02*
X164188628Y-89638094D01*
X163760057Y-88685713D02*
X163712438Y-88638094D01*
X163712438Y-88638094D02*
X163664819Y-88542856D01*
X163664819Y-88542856D02*
X163664819Y-88304761D01*
X163664819Y-88304761D02*
X163712438Y-88209523D01*
X163712438Y-88209523D02*
X163760057Y-88161904D01*
X163760057Y-88161904D02*
X163855295Y-88114285D01*
X163855295Y-88114285D02*
X163950533Y-88114285D01*
X163950533Y-88114285D02*
X164093390Y-88161904D01*
X164093390Y-88161904D02*
X164664819Y-88733332D01*
X164664819Y-88733332D02*
X164664819Y-88114285D01*
X155368095Y-88944819D02*
X155368095Y-89754342D01*
X155368095Y-89754342D02*
X155415714Y-89849580D01*
X155415714Y-89849580D02*
X155463333Y-89897200D01*
X155463333Y-89897200D02*
X155558571Y-89944819D01*
X155558571Y-89944819D02*
X155749047Y-89944819D01*
X155749047Y-89944819D02*
X155844285Y-89897200D01*
X155844285Y-89897200D02*
X155891904Y-89849580D01*
X155891904Y-89849580D02*
X155939523Y-89754342D01*
X155939523Y-89754342D02*
X155939523Y-88944819D01*
X156939523Y-89944819D02*
X156368095Y-89944819D01*
X156653809Y-89944819D02*
X156653809Y-88944819D01*
X156653809Y-88944819D02*
X156558571Y-89087676D01*
X156558571Y-89087676D02*
X156463333Y-89182914D01*
X156463333Y-89182914D02*
X156368095Y-89230533D01*
D11*
%TO.C,C1*%
X165835000Y-93718748D02*
X165835000Y-94241252D01*
X164365000Y-93718748D02*
X164365000Y-94241252D01*
%TO.C,J2*%
X170040000Y-103820000D02*
X168150000Y-103820000D01*
X170040000Y-100300000D02*
X168150000Y-100300000D01*
X168390000Y-109700000D02*
X168390000Y-106850000D01*
X168150000Y-109460000D02*
X168150000Y-99640000D01*
X168150000Y-99640000D02*
X144050000Y-99640000D01*
X165540000Y-109700000D02*
X168390000Y-109700000D01*
X144050000Y-99640000D02*
X144050000Y-98240000D01*
X144050000Y-98240000D02*
X142240000Y-98240000D01*
X142240000Y-109460000D02*
X168150000Y-109460000D01*
X142240000Y-109460000D02*
X116330000Y-109460000D01*
X140430000Y-99640000D02*
X140430000Y-98240000D01*
X140430000Y-98240000D02*
X142240000Y-98240000D01*
X116330000Y-109460000D02*
X116330000Y-99640000D01*
X116330000Y-99640000D02*
X140430000Y-99640000D01*
X114440000Y-103820000D02*
X116330000Y-103820000D01*
X114440000Y-100300000D02*
X116330000Y-100300000D01*
X170040000Y-103820000D02*
G75*
G03*
X170040000Y-100300000I0J1760000D01*
G01*
X114440000Y-100300000D02*
G75*
G03*
X114440000Y-103820000I0J-1760000D01*
G01*
%TO.C,R1*%
X149055000Y-93782936D02*
X149055000Y-94237064D01*
X147585000Y-93782936D02*
X147585000Y-94237064D01*
%TO.C,R2*%
X163295000Y-88672936D02*
X163295000Y-89127064D01*
X161825000Y-88672936D02*
X161825000Y-89127064D01*
%TO.C,U1*%
X155230000Y-94000000D02*
X157030000Y-94000000D01*
X157030000Y-90780000D02*
X154580000Y-90780000D01*
%TD*%
%LPC*%
D12*
%TO.C,C1*%
X165100000Y-92942500D03*
X165100000Y-95017500D03*
%TD*%
D13*
%TO.C,J2*%
X170040000Y-102060000D03*
X114440000Y-102060000D03*
D14*
X165340000Y-107100000D03*
D15*
X161140000Y-107100000D03*
X156940000Y-107100000D03*
X152740000Y-107100000D03*
X148540000Y-107100000D03*
X144340000Y-107100000D03*
X140140000Y-107100000D03*
X135940000Y-107100000D03*
X131740000Y-107100000D03*
X127540000Y-107100000D03*
X123340000Y-107100000D03*
X119140000Y-107100000D03*
X165340000Y-101600000D03*
X161140000Y-101600000D03*
X156940000Y-101600000D03*
X152740000Y-101600000D03*
X148540000Y-101600000D03*
X144340000Y-101600000D03*
X140140000Y-101600000D03*
X135940000Y-101600000D03*
X131740000Y-101600000D03*
X127540000Y-101600000D03*
X123340000Y-101600000D03*
X119140000Y-101600000D03*
%TD*%
D16*
%TO.C,R1*%
X148320000Y-93010000D03*
X148320000Y-95010000D03*
%TD*%
%TO.C,R2*%
X162560000Y-87900000D03*
X162560000Y-89900000D03*
%TD*%
D17*
%TO.C,U1*%
X154780000Y-91440000D03*
X154780000Y-92390000D03*
X154780000Y-93340000D03*
X157480000Y-93340000D03*
X157480000Y-91440000D03*
%TD*%
D13*
%TO.C,J1*%
X140640000Y-93520000D03*
X114440000Y-93520000D03*
D14*
X119140000Y-88480000D03*
D15*
X123340000Y-88480000D03*
X127540000Y-88480000D03*
X131740000Y-88480000D03*
X135940000Y-88480000D03*
X119140000Y-93980000D03*
X123340000Y-93980000D03*
X127540000Y-93980000D03*
X131740000Y-93980000D03*
X135940000Y-93980000D03*
%TD*%
%LPD*%
M02*
