M48
; DRILL file {KiCad 7.0.11} date Wed Aug 14 14:49:56 2024
; FORMAT={-:-/ absolute / metric / decimal}
; #@! TF.CreationDate,2024-08-14T14:49:56+09:00
; #@! TF.GenerationSoftware,Kicad,Pcbnew,7.0.11
; #@! TF.FileFunction,Plated,1,2,PTH
FMAT,2
METRIC
; #@! TA.AperFunction,Plated,PTH,ComponentDrill
T1C1.400
%
G90
G05
T1
X119.14Y-88.48
X119.14Y-93.98
X119.14Y-101.6
X119.14Y-107.1
X123.34Y-88.48
X123.34Y-93.98
X123.34Y-101.6
X123.34Y-107.1
X127.54Y-88.48
X127.54Y-93.98
X127.54Y-101.6
X127.54Y-107.1
X131.74Y-88.48
X131.74Y-93.98
X131.74Y-101.6
X131.74Y-107.1
X135.94Y-88.48
X135.94Y-93.98
X135.94Y-101.6
X135.94Y-107.1
X140.14Y-101.6
X140.14Y-107.1
X144.34Y-101.6
X144.34Y-107.1
X148.54Y-101.6
X148.54Y-107.1
X152.74Y-101.6
X152.74Y-107.1
X156.94Y-101.6
X156.94Y-107.1
X161.14Y-101.6
X161.14Y-107.1
X165.34Y-101.6
X165.34Y-107.1
M30
