%TF.GenerationSoftware,KiCad,Pcbnew,7.0.11*%
%TF.CreationDate,2024-08-14T14:51:31+09:00*%
%TF.ProjectId,mac_psu_atx_adapter,6d61635f-7073-4755-9f61-74785f616461,rev?*%
%TF.SameCoordinates,Original*%
%TF.FileFunction,Drillmap*%
%TF.FilePolarity,Positive*%
%FSLAX45Y45*%
G04 Gerber Fmt 4.5, Leading zero omitted, Abs format (unit mm)*
G04 Created by KiCad (PCBNEW 7.0.11) date 2024-08-14 14:51:31*
%MOMM*%
%LPD*%
G01*
G04 APERTURE LIST*
%ADD10C,0.100000*%
%ADD11C,0.200000*%
%ADD12C,0.300000*%
G04 APERTURE END LIST*
D10*
X11176000Y-8382000D02*
X17272000Y-8382000D01*
X17272000Y-11176000D01*
X11176000Y-11176000D01*
X11176000Y-8382000D01*
D11*
D12*
X11294000Y-9202000D02*
X11594000Y-9502000D01*
X11594000Y-9202000D02*
X11294000Y-9502000D01*
X11294000Y-10056000D02*
X11594000Y-10356000D01*
X11594000Y-10056000D02*
X11294000Y-10356000D01*
X13914000Y-9202000D02*
X14214000Y-9502000D01*
X14214000Y-9202000D02*
X13914000Y-9502000D01*
X16854000Y-10056000D02*
X17154000Y-10356000D01*
X17154000Y-10056000D02*
X16854000Y-10356000D01*
D11*
X11431777Y-11492484D02*
X11431777Y-11292484D01*
X11431777Y-11292484D02*
X11479396Y-11292484D01*
X11479396Y-11292484D02*
X11507967Y-11302008D01*
X11507967Y-11302008D02*
X11527015Y-11321055D01*
X11527015Y-11321055D02*
X11536539Y-11340103D01*
X11536539Y-11340103D02*
X11546062Y-11378198D01*
X11546062Y-11378198D02*
X11546062Y-11406769D01*
X11546062Y-11406769D02*
X11536539Y-11444865D01*
X11536539Y-11444865D02*
X11527015Y-11463912D01*
X11527015Y-11463912D02*
X11507967Y-11482960D01*
X11507967Y-11482960D02*
X11479396Y-11492484D01*
X11479396Y-11492484D02*
X11431777Y-11492484D01*
X11631777Y-11492484D02*
X11631777Y-11359150D01*
X11631777Y-11397246D02*
X11641301Y-11378198D01*
X11641301Y-11378198D02*
X11650824Y-11368674D01*
X11650824Y-11368674D02*
X11669872Y-11359150D01*
X11669872Y-11359150D02*
X11688920Y-11359150D01*
X11755586Y-11492484D02*
X11755586Y-11359150D01*
X11755586Y-11292484D02*
X11746062Y-11302008D01*
X11746062Y-11302008D02*
X11755586Y-11311531D01*
X11755586Y-11311531D02*
X11765110Y-11302008D01*
X11765110Y-11302008D02*
X11755586Y-11292484D01*
X11755586Y-11292484D02*
X11755586Y-11311531D01*
X11879396Y-11492484D02*
X11860348Y-11482960D01*
X11860348Y-11482960D02*
X11850824Y-11463912D01*
X11850824Y-11463912D02*
X11850824Y-11292484D01*
X11984158Y-11492484D02*
X11965110Y-11482960D01*
X11965110Y-11482960D02*
X11955586Y-11463912D01*
X11955586Y-11463912D02*
X11955586Y-11292484D01*
X12212729Y-11492484D02*
X12212729Y-11292484D01*
X12212729Y-11292484D02*
X12279396Y-11435341D01*
X12279396Y-11435341D02*
X12346062Y-11292484D01*
X12346062Y-11292484D02*
X12346062Y-11492484D01*
X12527015Y-11492484D02*
X12527015Y-11387722D01*
X12527015Y-11387722D02*
X12517491Y-11368674D01*
X12517491Y-11368674D02*
X12498443Y-11359150D01*
X12498443Y-11359150D02*
X12460348Y-11359150D01*
X12460348Y-11359150D02*
X12441301Y-11368674D01*
X12527015Y-11482960D02*
X12507967Y-11492484D01*
X12507967Y-11492484D02*
X12460348Y-11492484D01*
X12460348Y-11492484D02*
X12441301Y-11482960D01*
X12441301Y-11482960D02*
X12431777Y-11463912D01*
X12431777Y-11463912D02*
X12431777Y-11444865D01*
X12431777Y-11444865D02*
X12441301Y-11425817D01*
X12441301Y-11425817D02*
X12460348Y-11416293D01*
X12460348Y-11416293D02*
X12507967Y-11416293D01*
X12507967Y-11416293D02*
X12527015Y-11406769D01*
X12622253Y-11359150D02*
X12622253Y-11559150D01*
X12622253Y-11368674D02*
X12641301Y-11359150D01*
X12641301Y-11359150D02*
X12679396Y-11359150D01*
X12679396Y-11359150D02*
X12698443Y-11368674D01*
X12698443Y-11368674D02*
X12707967Y-11378198D01*
X12707967Y-11378198D02*
X12717491Y-11397246D01*
X12717491Y-11397246D02*
X12717491Y-11454388D01*
X12717491Y-11454388D02*
X12707967Y-11473436D01*
X12707967Y-11473436D02*
X12698443Y-11482960D01*
X12698443Y-11482960D02*
X12679396Y-11492484D01*
X12679396Y-11492484D02*
X12641301Y-11492484D01*
X12641301Y-11492484D02*
X12622253Y-11482960D01*
X12803205Y-11473436D02*
X12812729Y-11482960D01*
X12812729Y-11482960D02*
X12803205Y-11492484D01*
X12803205Y-11492484D02*
X12793682Y-11482960D01*
X12793682Y-11482960D02*
X12803205Y-11473436D01*
X12803205Y-11473436D02*
X12803205Y-11492484D01*
X12803205Y-11368674D02*
X12812729Y-11378198D01*
X12812729Y-11378198D02*
X12803205Y-11387722D01*
X12803205Y-11387722D02*
X12793682Y-11378198D01*
X12793682Y-11378198D02*
X12803205Y-11368674D01*
X12803205Y-11368674D02*
X12803205Y-11387722D01*
X10971000Y-11721000D02*
X11171000Y-11921000D01*
X11171000Y-11721000D02*
X10971000Y-11921000D01*
X11412729Y-11712484D02*
X11536539Y-11712484D01*
X11536539Y-11712484D02*
X11469872Y-11788674D01*
X11469872Y-11788674D02*
X11498443Y-11788674D01*
X11498443Y-11788674D02*
X11517491Y-11798198D01*
X11517491Y-11798198D02*
X11527015Y-11807722D01*
X11527015Y-11807722D02*
X11536539Y-11826769D01*
X11536539Y-11826769D02*
X11536539Y-11874388D01*
X11536539Y-11874388D02*
X11527015Y-11893436D01*
X11527015Y-11893436D02*
X11517491Y-11902960D01*
X11517491Y-11902960D02*
X11498443Y-11912484D01*
X11498443Y-11912484D02*
X11441301Y-11912484D01*
X11441301Y-11912484D02*
X11422253Y-11902960D01*
X11422253Y-11902960D02*
X11412729Y-11893436D01*
X11622253Y-11893436D02*
X11631777Y-11902960D01*
X11631777Y-11902960D02*
X11622253Y-11912484D01*
X11622253Y-11912484D02*
X11612729Y-11902960D01*
X11612729Y-11902960D02*
X11622253Y-11893436D01*
X11622253Y-11893436D02*
X11622253Y-11912484D01*
X11755586Y-11712484D02*
X11774634Y-11712484D01*
X11774634Y-11712484D02*
X11793682Y-11722008D01*
X11793682Y-11722008D02*
X11803205Y-11731531D01*
X11803205Y-11731531D02*
X11812729Y-11750579D01*
X11812729Y-11750579D02*
X11822253Y-11788674D01*
X11822253Y-11788674D02*
X11822253Y-11836293D01*
X11822253Y-11836293D02*
X11812729Y-11874388D01*
X11812729Y-11874388D02*
X11803205Y-11893436D01*
X11803205Y-11893436D02*
X11793682Y-11902960D01*
X11793682Y-11902960D02*
X11774634Y-11912484D01*
X11774634Y-11912484D02*
X11755586Y-11912484D01*
X11755586Y-11912484D02*
X11736539Y-11902960D01*
X11736539Y-11902960D02*
X11727015Y-11893436D01*
X11727015Y-11893436D02*
X11717491Y-11874388D01*
X11717491Y-11874388D02*
X11707967Y-11836293D01*
X11707967Y-11836293D02*
X11707967Y-11788674D01*
X11707967Y-11788674D02*
X11717491Y-11750579D01*
X11717491Y-11750579D02*
X11727015Y-11731531D01*
X11727015Y-11731531D02*
X11736539Y-11722008D01*
X11736539Y-11722008D02*
X11755586Y-11712484D01*
X11946062Y-11712484D02*
X11965110Y-11712484D01*
X11965110Y-11712484D02*
X11984158Y-11722008D01*
X11984158Y-11722008D02*
X11993682Y-11731531D01*
X11993682Y-11731531D02*
X12003205Y-11750579D01*
X12003205Y-11750579D02*
X12012729Y-11788674D01*
X12012729Y-11788674D02*
X12012729Y-11836293D01*
X12012729Y-11836293D02*
X12003205Y-11874388D01*
X12003205Y-11874388D02*
X11993682Y-11893436D01*
X11993682Y-11893436D02*
X11984158Y-11902960D01*
X11984158Y-11902960D02*
X11965110Y-11912484D01*
X11965110Y-11912484D02*
X11946062Y-11912484D01*
X11946062Y-11912484D02*
X11927015Y-11902960D01*
X11927015Y-11902960D02*
X11917491Y-11893436D01*
X11917491Y-11893436D02*
X11907967Y-11874388D01*
X11907967Y-11874388D02*
X11898443Y-11836293D01*
X11898443Y-11836293D02*
X11898443Y-11788674D01*
X11898443Y-11788674D02*
X11907967Y-11750579D01*
X11907967Y-11750579D02*
X11917491Y-11731531D01*
X11917491Y-11731531D02*
X11927015Y-11722008D01*
X11927015Y-11722008D02*
X11946062Y-11712484D01*
X12136539Y-11712484D02*
X12155586Y-11712484D01*
X12155586Y-11712484D02*
X12174634Y-11722008D01*
X12174634Y-11722008D02*
X12184158Y-11731531D01*
X12184158Y-11731531D02*
X12193682Y-11750579D01*
X12193682Y-11750579D02*
X12203205Y-11788674D01*
X12203205Y-11788674D02*
X12203205Y-11836293D01*
X12203205Y-11836293D02*
X12193682Y-11874388D01*
X12193682Y-11874388D02*
X12184158Y-11893436D01*
X12184158Y-11893436D02*
X12174634Y-11902960D01*
X12174634Y-11902960D02*
X12155586Y-11912484D01*
X12155586Y-11912484D02*
X12136539Y-11912484D01*
X12136539Y-11912484D02*
X12117491Y-11902960D01*
X12117491Y-11902960D02*
X12107967Y-11893436D01*
X12107967Y-11893436D02*
X12098443Y-11874388D01*
X12098443Y-11874388D02*
X12088920Y-11836293D01*
X12088920Y-11836293D02*
X12088920Y-11788674D01*
X12088920Y-11788674D02*
X12098443Y-11750579D01*
X12098443Y-11750579D02*
X12107967Y-11731531D01*
X12107967Y-11731531D02*
X12117491Y-11722008D01*
X12117491Y-11722008D02*
X12136539Y-11712484D01*
X12288920Y-11912484D02*
X12288920Y-11779150D01*
X12288920Y-11798198D02*
X12298443Y-11788674D01*
X12298443Y-11788674D02*
X12317491Y-11779150D01*
X12317491Y-11779150D02*
X12346063Y-11779150D01*
X12346063Y-11779150D02*
X12365110Y-11788674D01*
X12365110Y-11788674D02*
X12374634Y-11807722D01*
X12374634Y-11807722D02*
X12374634Y-11912484D01*
X12374634Y-11807722D02*
X12384158Y-11788674D01*
X12384158Y-11788674D02*
X12403205Y-11779150D01*
X12403205Y-11779150D02*
X12431777Y-11779150D01*
X12431777Y-11779150D02*
X12450824Y-11788674D01*
X12450824Y-11788674D02*
X12460348Y-11807722D01*
X12460348Y-11807722D02*
X12460348Y-11912484D01*
X12555586Y-11912484D02*
X12555586Y-11779150D01*
X12555586Y-11798198D02*
X12565110Y-11788674D01*
X12565110Y-11788674D02*
X12584158Y-11779150D01*
X12584158Y-11779150D02*
X12612729Y-11779150D01*
X12612729Y-11779150D02*
X12631777Y-11788674D01*
X12631777Y-11788674D02*
X12641301Y-11807722D01*
X12641301Y-11807722D02*
X12641301Y-11912484D01*
X12641301Y-11807722D02*
X12650824Y-11788674D01*
X12650824Y-11788674D02*
X12669872Y-11779150D01*
X12669872Y-11779150D02*
X12698443Y-11779150D01*
X12698443Y-11779150D02*
X12717491Y-11788674D01*
X12717491Y-11788674D02*
X12727015Y-11807722D01*
X12727015Y-11807722D02*
X12727015Y-11912484D01*
X13117491Y-11702960D02*
X12946063Y-11960103D01*
X13374634Y-11712484D02*
X13393682Y-11712484D01*
X13393682Y-11712484D02*
X13412729Y-11722008D01*
X13412729Y-11722008D02*
X13422253Y-11731531D01*
X13422253Y-11731531D02*
X13431777Y-11750579D01*
X13431777Y-11750579D02*
X13441301Y-11788674D01*
X13441301Y-11788674D02*
X13441301Y-11836293D01*
X13441301Y-11836293D02*
X13431777Y-11874388D01*
X13431777Y-11874388D02*
X13422253Y-11893436D01*
X13422253Y-11893436D02*
X13412729Y-11902960D01*
X13412729Y-11902960D02*
X13393682Y-11912484D01*
X13393682Y-11912484D02*
X13374634Y-11912484D01*
X13374634Y-11912484D02*
X13355586Y-11902960D01*
X13355586Y-11902960D02*
X13346063Y-11893436D01*
X13346063Y-11893436D02*
X13336539Y-11874388D01*
X13336539Y-11874388D02*
X13327015Y-11836293D01*
X13327015Y-11836293D02*
X13327015Y-11788674D01*
X13327015Y-11788674D02*
X13336539Y-11750579D01*
X13336539Y-11750579D02*
X13346063Y-11731531D01*
X13346063Y-11731531D02*
X13355586Y-11722008D01*
X13355586Y-11722008D02*
X13374634Y-11712484D01*
X13527015Y-11893436D02*
X13536539Y-11902960D01*
X13536539Y-11902960D02*
X13527015Y-11912484D01*
X13527015Y-11912484D02*
X13517491Y-11902960D01*
X13517491Y-11902960D02*
X13527015Y-11893436D01*
X13527015Y-11893436D02*
X13527015Y-11912484D01*
X13727015Y-11912484D02*
X13612729Y-11912484D01*
X13669872Y-11912484D02*
X13669872Y-11712484D01*
X13669872Y-11712484D02*
X13650825Y-11741055D01*
X13650825Y-11741055D02*
X13631777Y-11760103D01*
X13631777Y-11760103D02*
X13612729Y-11769627D01*
X13917491Y-11912484D02*
X13803206Y-11912484D01*
X13860348Y-11912484D02*
X13860348Y-11712484D01*
X13860348Y-11712484D02*
X13841301Y-11741055D01*
X13841301Y-11741055D02*
X13822253Y-11760103D01*
X13822253Y-11760103D02*
X13803206Y-11769627D01*
X14031777Y-11798198D02*
X14012729Y-11788674D01*
X14012729Y-11788674D02*
X14003206Y-11779150D01*
X14003206Y-11779150D02*
X13993682Y-11760103D01*
X13993682Y-11760103D02*
X13993682Y-11750579D01*
X13993682Y-11750579D02*
X14003206Y-11731531D01*
X14003206Y-11731531D02*
X14012729Y-11722008D01*
X14012729Y-11722008D02*
X14031777Y-11712484D01*
X14031777Y-11712484D02*
X14069872Y-11712484D01*
X14069872Y-11712484D02*
X14088920Y-11722008D01*
X14088920Y-11722008D02*
X14098444Y-11731531D01*
X14098444Y-11731531D02*
X14107967Y-11750579D01*
X14107967Y-11750579D02*
X14107967Y-11760103D01*
X14107967Y-11760103D02*
X14098444Y-11779150D01*
X14098444Y-11779150D02*
X14088920Y-11788674D01*
X14088920Y-11788674D02*
X14069872Y-11798198D01*
X14069872Y-11798198D02*
X14031777Y-11798198D01*
X14031777Y-11798198D02*
X14012729Y-11807722D01*
X14012729Y-11807722D02*
X14003206Y-11817246D01*
X14003206Y-11817246D02*
X13993682Y-11836293D01*
X13993682Y-11836293D02*
X13993682Y-11874388D01*
X13993682Y-11874388D02*
X14003206Y-11893436D01*
X14003206Y-11893436D02*
X14012729Y-11902960D01*
X14012729Y-11902960D02*
X14031777Y-11912484D01*
X14031777Y-11912484D02*
X14069872Y-11912484D01*
X14069872Y-11912484D02*
X14088920Y-11902960D01*
X14088920Y-11902960D02*
X14098444Y-11893436D01*
X14098444Y-11893436D02*
X14107967Y-11874388D01*
X14107967Y-11874388D02*
X14107967Y-11836293D01*
X14107967Y-11836293D02*
X14098444Y-11817246D01*
X14098444Y-11817246D02*
X14088920Y-11807722D01*
X14088920Y-11807722D02*
X14069872Y-11798198D01*
X14298444Y-11912484D02*
X14184158Y-11912484D01*
X14241301Y-11912484D02*
X14241301Y-11712484D01*
X14241301Y-11712484D02*
X14222253Y-11741055D01*
X14222253Y-11741055D02*
X14203206Y-11760103D01*
X14203206Y-11760103D02*
X14184158Y-11769627D01*
X14374634Y-11712484D02*
X14374634Y-11750579D01*
X14450825Y-11712484D02*
X14450825Y-11750579D01*
X14746063Y-11988674D02*
X14736539Y-11979150D01*
X14736539Y-11979150D02*
X14717491Y-11950579D01*
X14717491Y-11950579D02*
X14707968Y-11931531D01*
X14707968Y-11931531D02*
X14698444Y-11902960D01*
X14698444Y-11902960D02*
X14688920Y-11855341D01*
X14688920Y-11855341D02*
X14688920Y-11817246D01*
X14688920Y-11817246D02*
X14698444Y-11769627D01*
X14698444Y-11769627D02*
X14707968Y-11741055D01*
X14707968Y-11741055D02*
X14717491Y-11722008D01*
X14717491Y-11722008D02*
X14736539Y-11693436D01*
X14736539Y-11693436D02*
X14746063Y-11683912D01*
X14907968Y-11779150D02*
X14907968Y-11912484D01*
X14860348Y-11702960D02*
X14812729Y-11845817D01*
X14812729Y-11845817D02*
X14936539Y-11845817D01*
X15165110Y-11912484D02*
X15165110Y-11712484D01*
X15250825Y-11912484D02*
X15250825Y-11807722D01*
X15250825Y-11807722D02*
X15241301Y-11788674D01*
X15241301Y-11788674D02*
X15222253Y-11779150D01*
X15222253Y-11779150D02*
X15193682Y-11779150D01*
X15193682Y-11779150D02*
X15174634Y-11788674D01*
X15174634Y-11788674D02*
X15165110Y-11798198D01*
X15374634Y-11912484D02*
X15355587Y-11902960D01*
X15355587Y-11902960D02*
X15346063Y-11893436D01*
X15346063Y-11893436D02*
X15336539Y-11874388D01*
X15336539Y-11874388D02*
X15336539Y-11817246D01*
X15336539Y-11817246D02*
X15346063Y-11798198D01*
X15346063Y-11798198D02*
X15355587Y-11788674D01*
X15355587Y-11788674D02*
X15374634Y-11779150D01*
X15374634Y-11779150D02*
X15403206Y-11779150D01*
X15403206Y-11779150D02*
X15422253Y-11788674D01*
X15422253Y-11788674D02*
X15431777Y-11798198D01*
X15431777Y-11798198D02*
X15441301Y-11817246D01*
X15441301Y-11817246D02*
X15441301Y-11874388D01*
X15441301Y-11874388D02*
X15431777Y-11893436D01*
X15431777Y-11893436D02*
X15422253Y-11902960D01*
X15422253Y-11902960D02*
X15403206Y-11912484D01*
X15403206Y-11912484D02*
X15374634Y-11912484D01*
X15555587Y-11912484D02*
X15536539Y-11902960D01*
X15536539Y-11902960D02*
X15527015Y-11883912D01*
X15527015Y-11883912D02*
X15527015Y-11712484D01*
X15707968Y-11902960D02*
X15688920Y-11912484D01*
X15688920Y-11912484D02*
X15650825Y-11912484D01*
X15650825Y-11912484D02*
X15631777Y-11902960D01*
X15631777Y-11902960D02*
X15622253Y-11883912D01*
X15622253Y-11883912D02*
X15622253Y-11807722D01*
X15622253Y-11807722D02*
X15631777Y-11788674D01*
X15631777Y-11788674D02*
X15650825Y-11779150D01*
X15650825Y-11779150D02*
X15688920Y-11779150D01*
X15688920Y-11779150D02*
X15707968Y-11788674D01*
X15707968Y-11788674D02*
X15717491Y-11807722D01*
X15717491Y-11807722D02*
X15717491Y-11826769D01*
X15717491Y-11826769D02*
X15622253Y-11845817D01*
X15793682Y-11902960D02*
X15812730Y-11912484D01*
X15812730Y-11912484D02*
X15850825Y-11912484D01*
X15850825Y-11912484D02*
X15869872Y-11902960D01*
X15869872Y-11902960D02*
X15879396Y-11883912D01*
X15879396Y-11883912D02*
X15879396Y-11874388D01*
X15879396Y-11874388D02*
X15869872Y-11855341D01*
X15869872Y-11855341D02*
X15850825Y-11845817D01*
X15850825Y-11845817D02*
X15822253Y-11845817D01*
X15822253Y-11845817D02*
X15803206Y-11836293D01*
X15803206Y-11836293D02*
X15793682Y-11817246D01*
X15793682Y-11817246D02*
X15793682Y-11807722D01*
X15793682Y-11807722D02*
X15803206Y-11788674D01*
X15803206Y-11788674D02*
X15822253Y-11779150D01*
X15822253Y-11779150D02*
X15850825Y-11779150D01*
X15850825Y-11779150D02*
X15869872Y-11788674D01*
X15946063Y-11988674D02*
X15955587Y-11979150D01*
X15955587Y-11979150D02*
X15974634Y-11950579D01*
X15974634Y-11950579D02*
X15984158Y-11931531D01*
X15984158Y-11931531D02*
X15993682Y-11902960D01*
X15993682Y-11902960D02*
X16003206Y-11855341D01*
X16003206Y-11855341D02*
X16003206Y-11817246D01*
X16003206Y-11817246D02*
X15993682Y-11769627D01*
X15993682Y-11769627D02*
X15984158Y-11741055D01*
X15984158Y-11741055D02*
X15974634Y-11722008D01*
X15974634Y-11722008D02*
X15955587Y-11693436D01*
X15955587Y-11693436D02*
X15946063Y-11683912D01*
X16307968Y-11988674D02*
X16298444Y-11979150D01*
X16298444Y-11979150D02*
X16279396Y-11950579D01*
X16279396Y-11950579D02*
X16269872Y-11931531D01*
X16269872Y-11931531D02*
X16260349Y-11902960D01*
X16260349Y-11902960D02*
X16250825Y-11855341D01*
X16250825Y-11855341D02*
X16250825Y-11817246D01*
X16250825Y-11817246D02*
X16260349Y-11769627D01*
X16260349Y-11769627D02*
X16269872Y-11741055D01*
X16269872Y-11741055D02*
X16279396Y-11722008D01*
X16279396Y-11722008D02*
X16298444Y-11693436D01*
X16298444Y-11693436D02*
X16307968Y-11683912D01*
X16384158Y-11779150D02*
X16384158Y-11912484D01*
X16384158Y-11798198D02*
X16393682Y-11788674D01*
X16393682Y-11788674D02*
X16412730Y-11779150D01*
X16412730Y-11779150D02*
X16441301Y-11779150D01*
X16441301Y-11779150D02*
X16460349Y-11788674D01*
X16460349Y-11788674D02*
X16469872Y-11807722D01*
X16469872Y-11807722D02*
X16469872Y-11912484D01*
X16593682Y-11912484D02*
X16574634Y-11902960D01*
X16574634Y-11902960D02*
X16565111Y-11893436D01*
X16565111Y-11893436D02*
X16555587Y-11874388D01*
X16555587Y-11874388D02*
X16555587Y-11817246D01*
X16555587Y-11817246D02*
X16565111Y-11798198D01*
X16565111Y-11798198D02*
X16574634Y-11788674D01*
X16574634Y-11788674D02*
X16593682Y-11779150D01*
X16593682Y-11779150D02*
X16622253Y-11779150D01*
X16622253Y-11779150D02*
X16641301Y-11788674D01*
X16641301Y-11788674D02*
X16650825Y-11798198D01*
X16650825Y-11798198D02*
X16660349Y-11817246D01*
X16660349Y-11817246D02*
X16660349Y-11874388D01*
X16660349Y-11874388D02*
X16650825Y-11893436D01*
X16650825Y-11893436D02*
X16641301Y-11902960D01*
X16641301Y-11902960D02*
X16622253Y-11912484D01*
X16622253Y-11912484D02*
X16593682Y-11912484D01*
X16717492Y-11779150D02*
X16793682Y-11779150D01*
X16746063Y-11712484D02*
X16746063Y-11883912D01*
X16746063Y-11883912D02*
X16755587Y-11902960D01*
X16755587Y-11902960D02*
X16774634Y-11912484D01*
X16774634Y-11912484D02*
X16793682Y-11912484D01*
X17012730Y-11779150D02*
X17012730Y-11979150D01*
X17012730Y-11788674D02*
X17031777Y-11779150D01*
X17031777Y-11779150D02*
X17069873Y-11779150D01*
X17069873Y-11779150D02*
X17088920Y-11788674D01*
X17088920Y-11788674D02*
X17098444Y-11798198D01*
X17098444Y-11798198D02*
X17107968Y-11817246D01*
X17107968Y-11817246D02*
X17107968Y-11874388D01*
X17107968Y-11874388D02*
X17098444Y-11893436D01*
X17098444Y-11893436D02*
X17088920Y-11902960D01*
X17088920Y-11902960D02*
X17069873Y-11912484D01*
X17069873Y-11912484D02*
X17031777Y-11912484D01*
X17031777Y-11912484D02*
X17012730Y-11902960D01*
X17222254Y-11912484D02*
X17203206Y-11902960D01*
X17203206Y-11902960D02*
X17193682Y-11883912D01*
X17193682Y-11883912D02*
X17193682Y-11712484D01*
X17384158Y-11912484D02*
X17384158Y-11807722D01*
X17384158Y-11807722D02*
X17374635Y-11788674D01*
X17374635Y-11788674D02*
X17355587Y-11779150D01*
X17355587Y-11779150D02*
X17317492Y-11779150D01*
X17317492Y-11779150D02*
X17298444Y-11788674D01*
X17384158Y-11902960D02*
X17365111Y-11912484D01*
X17365111Y-11912484D02*
X17317492Y-11912484D01*
X17317492Y-11912484D02*
X17298444Y-11902960D01*
X17298444Y-11902960D02*
X17288920Y-11883912D01*
X17288920Y-11883912D02*
X17288920Y-11864865D01*
X17288920Y-11864865D02*
X17298444Y-11845817D01*
X17298444Y-11845817D02*
X17317492Y-11836293D01*
X17317492Y-11836293D02*
X17365111Y-11836293D01*
X17365111Y-11836293D02*
X17384158Y-11826769D01*
X17450825Y-11779150D02*
X17527015Y-11779150D01*
X17479396Y-11712484D02*
X17479396Y-11883912D01*
X17479396Y-11883912D02*
X17488920Y-11902960D01*
X17488920Y-11902960D02*
X17507968Y-11912484D01*
X17507968Y-11912484D02*
X17527015Y-11912484D01*
X17669873Y-11902960D02*
X17650825Y-11912484D01*
X17650825Y-11912484D02*
X17612730Y-11912484D01*
X17612730Y-11912484D02*
X17593682Y-11902960D01*
X17593682Y-11902960D02*
X17584158Y-11883912D01*
X17584158Y-11883912D02*
X17584158Y-11807722D01*
X17584158Y-11807722D02*
X17593682Y-11788674D01*
X17593682Y-11788674D02*
X17612730Y-11779150D01*
X17612730Y-11779150D02*
X17650825Y-11779150D01*
X17650825Y-11779150D02*
X17669873Y-11788674D01*
X17669873Y-11788674D02*
X17679396Y-11807722D01*
X17679396Y-11807722D02*
X17679396Y-11826769D01*
X17679396Y-11826769D02*
X17584158Y-11845817D01*
X17850825Y-11912484D02*
X17850825Y-11712484D01*
X17850825Y-11902960D02*
X17831777Y-11912484D01*
X17831777Y-11912484D02*
X17793682Y-11912484D01*
X17793682Y-11912484D02*
X17774635Y-11902960D01*
X17774635Y-11902960D02*
X17765111Y-11893436D01*
X17765111Y-11893436D02*
X17755587Y-11874388D01*
X17755587Y-11874388D02*
X17755587Y-11817246D01*
X17755587Y-11817246D02*
X17765111Y-11798198D01*
X17765111Y-11798198D02*
X17774635Y-11788674D01*
X17774635Y-11788674D02*
X17793682Y-11779150D01*
X17793682Y-11779150D02*
X17831777Y-11779150D01*
X17831777Y-11779150D02*
X17850825Y-11788674D01*
X17927016Y-11988674D02*
X17936539Y-11979150D01*
X17936539Y-11979150D02*
X17955587Y-11950579D01*
X17955587Y-11950579D02*
X17965111Y-11931531D01*
X17965111Y-11931531D02*
X17974635Y-11902960D01*
X17974635Y-11902960D02*
X17984158Y-11855341D01*
X17984158Y-11855341D02*
X17984158Y-11817246D01*
X17984158Y-11817246D02*
X17974635Y-11769627D01*
X17974635Y-11769627D02*
X17965111Y-11741055D01*
X17965111Y-11741055D02*
X17955587Y-11722008D01*
X17955587Y-11722008D02*
X17936539Y-11693436D01*
X17936539Y-11693436D02*
X17927016Y-11683912D01*
M02*
